<mxfile host="app.diagrams.net" agent="Mozilla/5.0 (Windows NT 10.0; Win64; x64) AppleWebKit/537.36 (KHTML, like Gecko) Chrome/127.0.0.0 Safari/537.36" version="24.7.7">
  <diagram name="Página-1" id="HIS9FsupiRl9Y22HU4U_">
    <mxGraphModel grid="1" page="1" gridSize="10" guides="1" tooltips="1" connect="1" arrows="1" fold="1" pageScale="1" pageWidth="827" pageHeight="1169" math="0" shadow="0">
      <root>
        <mxCell id="0" />
        <mxCell id="1" parent="0" />
        <mxCell id="dWvWWe_ZRi6fru3HjnuF-1" value="REGISTRO USUARIO" style="shape=umlFrame;whiteSpace=wrap;html=1;pointerEvents=0;width=100;height=30;" vertex="1" parent="1">
          <mxGeometry x="200" y="300" width="550" height="460" as="geometry" />
        </mxCell>
        <mxCell id="dWvWWe_ZRi6fru3HjnuF-2" value="APP" style="shape=umlLifeline;perimeter=lifelinePerimeter;whiteSpace=wrap;html=1;container=1;dropTarget=0;collapsible=0;recursiveResize=0;outlineConnect=0;portConstraint=eastwest;newEdgeStyle={&quot;curved&quot;:0,&quot;rounded&quot;:0};size=30;" vertex="1" parent="1">
          <mxGeometry x="520" y="320" width="100" height="380" as="geometry" />
        </mxCell>
        <mxCell id="dWvWWe_ZRi6fru3HjnuF-3" value="" style="html=1;points=[[0,0,0,0,5],[0,1,0,0,-5],[1,0,0,0,5],[1,1,0,0,-5]];perimeter=orthogonalPerimeter;outlineConnect=0;targetShapes=umlLifeline;portConstraint=eastwest;newEdgeStyle={&quot;curved&quot;:0,&quot;rounded&quot;:0};" vertex="1" parent="dWvWWe_ZRi6fru3HjnuF-2">
          <mxGeometry x="45" y="200" width="10" height="90" as="geometry" />
        </mxCell>
        <mxCell id="dWvWWe_ZRi6fru3HjnuF-4" style="edgeStyle=orthogonalEdgeStyle;rounded=0;orthogonalLoop=1;jettySize=auto;html=1;curved=0;exitX=1;exitY=0;exitDx=0;exitDy=5;exitPerimeter=0;" edge="1" parent="dWvWWe_ZRi6fru3HjnuF-2" source="dWvWWe_ZRi6fru3HjnuF-3" target="dWvWWe_ZRi6fru3HjnuF-3">
          <mxGeometry relative="1" as="geometry" />
        </mxCell>
        <mxCell id="dWvWWe_ZRi6fru3HjnuF-5" value="Valida datos del usuario" style="edgeLabel;html=1;align=center;verticalAlign=middle;resizable=0;points=[];" connectable="0" vertex="1" parent="dWvWWe_ZRi6fru3HjnuF-4">
          <mxGeometry relative="1" as="geometry">
            <mxPoint x="45" as="offset" />
          </mxGeometry>
        </mxCell>
        <mxCell id="dWvWWe_ZRi6fru3HjnuF-6" value="" style="html=1;points=[[0,0,0,0,5],[0,1,0,0,-5],[1,0,0,0,5],[1,1,0,0,-5]];perimeter=orthogonalPerimeter;outlineConnect=0;targetShapes=umlLifeline;portConstraint=eastwest;newEdgeStyle={&quot;curved&quot;:0,&quot;rounded&quot;:0};" vertex="1" parent="dWvWWe_ZRi6fru3HjnuF-2">
          <mxGeometry x="45" y="310" width="10" height="70" as="geometry" />
        </mxCell>
        <mxCell id="dWvWWe_ZRi6fru3HjnuF-9" value="" style="html=1;points=[[0,0,0,0,5],[0,1,0,0,-5],[1,0,0,0,5],[1,1,0,0,-5]];perimeter=orthogonalPerimeter;outlineConnect=0;targetShapes=umlLifeline;portConstraint=eastwest;newEdgeStyle={&quot;curved&quot;:0,&quot;rounded&quot;:0};" vertex="1" parent="1">
          <mxGeometry x="565" y="400" width="10" height="80" as="geometry" />
        </mxCell>
        <mxCell id="dWvWWe_ZRi6fru3HjnuF-10" value="USUARIO" style="shape=umlLifeline;perimeter=lifelinePerimeter;whiteSpace=wrap;html=1;container=1;dropTarget=0;collapsible=0;recursiveResize=0;outlineConnect=0;portConstraint=eastwest;newEdgeStyle={&quot;curved&quot;:0,&quot;rounded&quot;:0};" vertex="1" parent="1">
          <mxGeometry x="335" y="320" width="100" height="410" as="geometry" />
        </mxCell>
        <mxCell id="dWvWWe_ZRi6fru3HjnuF-11" value="" style="html=1;points=[[0,0,0,0,5],[0,1,0,0,-5],[1,0,0,0,5],[1,1,0,0,-5]];perimeter=orthogonalPerimeter;outlineConnect=0;targetShapes=umlLifeline;portConstraint=eastwest;newEdgeStyle={&quot;curved&quot;:0,&quot;rounded&quot;:0};" vertex="1" parent="dWvWWe_ZRi6fru3HjnuF-10">
          <mxGeometry x="45" y="200" width="10" height="90" as="geometry" />
        </mxCell>
        <mxCell id="dWvWWe_ZRi6fru3HjnuF-12" value="" style="html=1;points=[[0,0,0,0,5],[0,1,0,0,-5],[1,0,0,0,5],[1,1,0,0,-5]];perimeter=orthogonalPerimeter;outlineConnect=0;targetShapes=umlLifeline;portConstraint=eastwest;newEdgeStyle={&quot;curved&quot;:0,&quot;rounded&quot;:0};" vertex="1" parent="dWvWWe_ZRi6fru3HjnuF-10">
          <mxGeometry x="45" y="310" width="10" height="70" as="geometry" />
        </mxCell>
        <mxCell id="dWvWWe_ZRi6fru3HjnuF-13" value="" style="html=1;points=[[0,0,0,0,5],[0,1,0,0,-5],[1,0,0,0,5],[1,1,0,0,-5]];perimeter=orthogonalPerimeter;outlineConnect=0;targetShapes=umlLifeline;portConstraint=eastwest;newEdgeStyle={&quot;curved&quot;:0,&quot;rounded&quot;:0};" vertex="1" parent="1">
          <mxGeometry x="380" y="390" width="10" height="90" as="geometry" />
        </mxCell>
        <mxCell id="dWvWWe_ZRi6fru3HjnuF-14" value="Solicita crear una cuenta" style="html=1;verticalAlign=bottom;endArrow=block;curved=0;rounded=0;" edge="1" parent="1" target="dWvWWe_ZRi6fru3HjnuF-9">
          <mxGeometry x="0.0057" width="80" relative="1" as="geometry">
            <mxPoint x="390" y="409.5" as="sourcePoint" />
            <mxPoint x="530" y="409.5" as="targetPoint" />
            <mxPoint as="offset" />
          </mxGeometry>
        </mxCell>
        <mxCell id="dWvWWe_ZRi6fru3HjnuF-15" value="Enviar datos del usuario" style="html=1;verticalAlign=bottom;endArrow=block;curved=0;rounded=0;" edge="1" parent="1">
          <mxGeometry width="80" relative="1" as="geometry">
            <mxPoint x="391" y="534.5" as="sourcePoint" />
            <mxPoint x="566" y="535" as="targetPoint" />
          </mxGeometry>
        </mxCell>
        <mxCell id="dWvWWe_ZRi6fru3HjnuF-18" value="Confirma creación de la cuenta" style="html=1;verticalAlign=bottom;endArrow=open;dashed=1;endSize=8;curved=0;rounded=0;exitX=0;exitY=1;exitDx=0;exitDy=-5;exitPerimeter=0;" edge="1" parent="1">
          <mxGeometry x="0.0057" relative="1" as="geometry">
            <mxPoint x="562" y="690" as="sourcePoint" />
            <mxPoint x="390" y="690" as="targetPoint" />
            <mxPoint as="offset" />
          </mxGeometry>
        </mxCell>
        <mxCell id="dWvWWe_ZRi6fru3HjnuF-25" value="" style="endArrow=classic;html=1;rounded=0;" edge="1" parent="1">
          <mxGeometry width="50" height="50" relative="1" as="geometry">
            <mxPoint x="560" y="470" as="sourcePoint" />
            <mxPoint x="390" y="470" as="targetPoint" />
            <Array as="points">
              <mxPoint x="510" y="470" />
            </Array>
          </mxGeometry>
        </mxCell>
        <mxCell id="dWvWWe_ZRi6fru3HjnuF-26" value="Solicita datos" style="text;html=1;align=center;verticalAlign=middle;resizable=0;points=[];autosize=1;strokeColor=none;fillColor=none;" vertex="1" parent="1">
          <mxGeometry x="425" y="438" width="90" height="30" as="geometry" />
        </mxCell>
        <mxCell id="dWvWWe_ZRi6fru3HjnuF-43" value="Iniciar Sesion" style="shape=umlFrame;whiteSpace=wrap;html=1;pointerEvents=0;width=100;height=30;" vertex="1" parent="1">
          <mxGeometry x="910" y="295" width="490" height="460" as="geometry" />
        </mxCell>
        <mxCell id="dWvWWe_ZRi6fru3HjnuF-44" value="APP" style="shape=umlLifeline;perimeter=lifelinePerimeter;whiteSpace=wrap;html=1;container=1;dropTarget=0;collapsible=0;recursiveResize=0;outlineConnect=0;portConstraint=eastwest;newEdgeStyle={&quot;curved&quot;:0,&quot;rounded&quot;:0};" vertex="1" parent="1">
          <mxGeometry x="1210" y="315" width="100" height="410" as="geometry" />
        </mxCell>
        <mxCell id="dWvWWe_ZRi6fru3HjnuF-45" value="" style="html=1;points=[[0,0,0,0,5],[0,1,0,0,-5],[1,0,0,0,5],[1,1,0,0,-5]];perimeter=orthogonalPerimeter;outlineConnect=0;targetShapes=umlLifeline;portConstraint=eastwest;newEdgeStyle={&quot;curved&quot;:0,&quot;rounded&quot;:0};" vertex="1" parent="dWvWWe_ZRi6fru3HjnuF-44">
          <mxGeometry x="45" y="200" width="10" height="90" as="geometry" />
        </mxCell>
        <mxCell id="dWvWWe_ZRi6fru3HjnuF-46" style="edgeStyle=orthogonalEdgeStyle;rounded=0;orthogonalLoop=1;jettySize=auto;html=1;curved=0;exitX=1;exitY=0;exitDx=0;exitDy=5;exitPerimeter=0;" edge="1" parent="dWvWWe_ZRi6fru3HjnuF-44" source="dWvWWe_ZRi6fru3HjnuF-45" target="dWvWWe_ZRi6fru3HjnuF-45">
          <mxGeometry relative="1" as="geometry" />
        </mxCell>
        <mxCell id="dWvWWe_ZRi6fru3HjnuF-47" value="Valida credenciales&amp;nbsp; &amp;nbsp;" style="edgeLabel;html=1;align=center;verticalAlign=middle;resizable=0;points=[];" connectable="0" vertex="1" parent="dWvWWe_ZRi6fru3HjnuF-46">
          <mxGeometry relative="1" as="geometry">
            <mxPoint x="45" as="offset" />
          </mxGeometry>
        </mxCell>
        <mxCell id="dWvWWe_ZRi6fru3HjnuF-48" value="" style="html=1;points=[[0,0,0,0,5],[0,1,0,0,-5],[1,0,0,0,5],[1,1,0,0,-5]];perimeter=orthogonalPerimeter;outlineConnect=0;targetShapes=umlLifeline;portConstraint=eastwest;newEdgeStyle={&quot;curved&quot;:0,&quot;rounded&quot;:0};" vertex="1" parent="dWvWWe_ZRi6fru3HjnuF-44">
          <mxGeometry x="45" y="310" width="10" height="70" as="geometry" />
        </mxCell>
        <mxCell id="dWvWWe_ZRi6fru3HjnuF-51" value="" style="html=1;points=[[0,0,0,0,5],[0,1,0,0,-5],[1,0,0,0,5],[1,1,0,0,-5]];perimeter=orthogonalPerimeter;outlineConnect=0;targetShapes=umlLifeline;portConstraint=eastwest;newEdgeStyle={&quot;curved&quot;:0,&quot;rounded&quot;:0};" vertex="1" parent="1">
          <mxGeometry x="1255" y="395" width="10" height="80" as="geometry" />
        </mxCell>
        <mxCell id="dWvWWe_ZRi6fru3HjnuF-52" value="USUARIO" style="shape=umlLifeline;perimeter=lifelinePerimeter;whiteSpace=wrap;html=1;container=1;dropTarget=0;collapsible=0;recursiveResize=0;outlineConnect=0;portConstraint=eastwest;newEdgeStyle={&quot;curved&quot;:0,&quot;rounded&quot;:0};" vertex="1" parent="1">
          <mxGeometry x="1025" y="315" width="100" height="410" as="geometry" />
        </mxCell>
        <mxCell id="dWvWWe_ZRi6fru3HjnuF-53" value="" style="html=1;points=[[0,0,0,0,5],[0,1,0,0,-5],[1,0,0,0,5],[1,1,0,0,-5]];perimeter=orthogonalPerimeter;outlineConnect=0;targetShapes=umlLifeline;portConstraint=eastwest;newEdgeStyle={&quot;curved&quot;:0,&quot;rounded&quot;:0};" vertex="1" parent="dWvWWe_ZRi6fru3HjnuF-52">
          <mxGeometry x="45" y="200" width="10" height="90" as="geometry" />
        </mxCell>
        <mxCell id="dWvWWe_ZRi6fru3HjnuF-54" value="" style="html=1;points=[[0,0,0,0,5],[0,1,0,0,-5],[1,0,0,0,5],[1,1,0,0,-5]];perimeter=orthogonalPerimeter;outlineConnect=0;targetShapes=umlLifeline;portConstraint=eastwest;newEdgeStyle={&quot;curved&quot;:0,&quot;rounded&quot;:0};" vertex="1" parent="dWvWWe_ZRi6fru3HjnuF-52">
          <mxGeometry x="45" y="310" width="10" height="70" as="geometry" />
        </mxCell>
        <mxCell id="dWvWWe_ZRi6fru3HjnuF-55" value="" style="html=1;points=[[0,0,0,0,5],[0,1,0,0,-5],[1,0,0,0,5],[1,1,0,0,-5]];perimeter=orthogonalPerimeter;outlineConnect=0;targetShapes=umlLifeline;portConstraint=eastwest;newEdgeStyle={&quot;curved&quot;:0,&quot;rounded&quot;:0};" vertex="1" parent="1">
          <mxGeometry x="1070" y="385" width="10" height="90" as="geometry" />
        </mxCell>
        <mxCell id="dWvWWe_ZRi6fru3HjnuF-56" value="Solicita iniciar sesion" style="html=1;verticalAlign=bottom;endArrow=block;curved=0;rounded=0;" edge="1" parent="1" target="dWvWWe_ZRi6fru3HjnuF-51">
          <mxGeometry width="80" relative="1" as="geometry">
            <mxPoint x="1080" y="404.5" as="sourcePoint" />
            <mxPoint x="1220" y="404.5" as="targetPoint" />
          </mxGeometry>
        </mxCell>
        <mxCell id="dWvWWe_ZRi6fru3HjnuF-57" value="Enviar credenciales" style="html=1;verticalAlign=bottom;endArrow=block;curved=0;rounded=0;" edge="1" parent="1">
          <mxGeometry width="80" relative="1" as="geometry">
            <mxPoint x="1081" y="529.5" as="sourcePoint" />
            <mxPoint x="1256" y="530" as="targetPoint" />
          </mxGeometry>
        </mxCell>
        <mxCell id="dWvWWe_ZRi6fru3HjnuF-60" value="Solicitar credenciales" style="html=1;verticalAlign=bottom;endArrow=block;curved=0;rounded=0;exitX=0.46;exitY=0.339;exitDx=0;exitDy=0;exitPerimeter=0;" edge="1" parent="1" target="dWvWWe_ZRi6fru3HjnuF-55">
          <mxGeometry width="80" relative="1" as="geometry">
            <mxPoint x="1255" y="455" as="sourcePoint" />
            <mxPoint x="1090" y="455" as="targetPoint" />
          </mxGeometry>
        </mxCell>
        <mxCell id="dWvWWe_ZRi6fru3HjnuF-61" value="Confirma credenciales" style="html=1;verticalAlign=bottom;endArrow=open;dashed=1;endSize=8;curved=0;rounded=0;exitX=0;exitY=1;exitDx=0;exitDy=-5;exitPerimeter=0;" edge="1" parent="1" target="dWvWWe_ZRi6fru3HjnuF-54">
          <mxGeometry x="0.0057" relative="1" as="geometry">
            <mxPoint x="1252" y="685" as="sourcePoint" />
            <mxPoint x="1110" y="685" as="targetPoint" />
            <mxPoint as="offset" />
          </mxGeometry>
        </mxCell>
        <mxCell id="dWvWWe_ZRi6fru3HjnuF-78" value="" style="group" connectable="0" vertex="1" parent="1">
          <mxGeometry x="1540" y="295" width="490" height="390" as="geometry" />
        </mxCell>
        <mxCell id="dWvWWe_ZRi6fru3HjnuF-63" value="VER ENCUESTAS" style="shape=umlFrame;whiteSpace=wrap;html=1;pointerEvents=0;width=100;height=30;" vertex="1" parent="dWvWWe_ZRi6fru3HjnuF-78">
          <mxGeometry width="490" height="390" as="geometry" />
        </mxCell>
        <mxCell id="dWvWWe_ZRi6fru3HjnuF-64" value="APP" style="shape=umlLifeline;perimeter=lifelinePerimeter;whiteSpace=wrap;html=1;container=1;dropTarget=0;collapsible=0;recursiveResize=0;outlineConnect=0;portConstraint=eastwest;newEdgeStyle={&quot;curved&quot;:0,&quot;rounded&quot;:0};" vertex="1" parent="dWvWWe_ZRi6fru3HjnuF-78">
          <mxGeometry x="300" y="20" width="100" height="370" as="geometry" />
        </mxCell>
        <mxCell id="dWvWWe_ZRi6fru3HjnuF-65" value="" style="html=1;points=[[0,0,0,0,5],[0,1,0,0,-5],[1,0,0,0,5],[1,1,0,0,-5]];perimeter=orthogonalPerimeter;outlineConnect=0;targetShapes=umlLifeline;portConstraint=eastwest;newEdgeStyle={&quot;curved&quot;:0,&quot;rounded&quot;:0};" vertex="1" parent="dWvWWe_ZRi6fru3HjnuF-64">
          <mxGeometry x="45" y="180" width="10" height="90" as="geometry" />
        </mxCell>
        <mxCell id="dWvWWe_ZRi6fru3HjnuF-66" style="edgeStyle=orthogonalEdgeStyle;rounded=0;orthogonalLoop=1;jettySize=auto;html=1;curved=0;exitX=1;exitY=0;exitDx=0;exitDy=5;exitPerimeter=0;" edge="1" parent="dWvWWe_ZRi6fru3HjnuF-64" source="dWvWWe_ZRi6fru3HjnuF-65" target="dWvWWe_ZRi6fru3HjnuF-65">
          <mxGeometry relative="1" as="geometry">
            <Array as="points" />
          </mxGeometry>
        </mxCell>
        <mxCell id="dWvWWe_ZRi6fru3HjnuF-67" value="Valida si hay&lt;div&gt;&amp;nbsp;encuestas disponibles&amp;nbsp;&lt;/div&gt;" style="edgeLabel;html=1;align=center;verticalAlign=middle;resizable=0;points=[];" connectable="0" vertex="1" parent="dWvWWe_ZRi6fru3HjnuF-66">
          <mxGeometry relative="1" as="geometry">
            <mxPoint x="55" as="offset" />
          </mxGeometry>
        </mxCell>
        <mxCell id="dWvWWe_ZRi6fru3HjnuF-69" value="" style="html=1;points=[[0,0,0,0,5],[0,1,0,0,-5],[1,0,0,0,5],[1,1,0,0,-5]];perimeter=orthogonalPerimeter;outlineConnect=0;targetShapes=umlLifeline;portConstraint=eastwest;newEdgeStyle={&quot;curved&quot;:0,&quot;rounded&quot;:0};" vertex="1" parent="dWvWWe_ZRi6fru3HjnuF-78">
          <mxGeometry x="345" y="100" width="10" height="50" as="geometry" />
        </mxCell>
        <mxCell id="dWvWWe_ZRi6fru3HjnuF-70" value="USUARIO" style="shape=umlLifeline;perimeter=lifelinePerimeter;whiteSpace=wrap;html=1;container=1;dropTarget=0;collapsible=0;recursiveResize=0;outlineConnect=0;portConstraint=eastwest;newEdgeStyle={&quot;curved&quot;:0,&quot;rounded&quot;:0};" vertex="1" parent="dWvWWe_ZRi6fru3HjnuF-78">
          <mxGeometry x="115" y="20" width="100" height="370" as="geometry" />
        </mxCell>
        <mxCell id="dWvWWe_ZRi6fru3HjnuF-72" value="" style="html=1;points=[[0,0,0,0,5],[0,1,0,0,-5],[1,0,0,0,5],[1,1,0,0,-5]];perimeter=orthogonalPerimeter;outlineConnect=0;targetShapes=umlLifeline;portConstraint=eastwest;newEdgeStyle={&quot;curved&quot;:0,&quot;rounded&quot;:0};" vertex="1" parent="dWvWWe_ZRi6fru3HjnuF-70">
          <mxGeometry x="45" y="230" width="10" height="70" as="geometry" />
        </mxCell>
        <mxCell id="dWvWWe_ZRi6fru3HjnuF-73" value="" style="html=1;points=[[0,0,0,0,5],[0,1,0,0,-5],[1,0,0,0,5],[1,1,0,0,-5]];perimeter=orthogonalPerimeter;outlineConnect=0;targetShapes=umlLifeline;portConstraint=eastwest;newEdgeStyle={&quot;curved&quot;:0,&quot;rounded&quot;:0};" vertex="1" parent="dWvWWe_ZRi6fru3HjnuF-78">
          <mxGeometry x="160" y="90" width="10" height="60" as="geometry" />
        </mxCell>
        <mxCell id="dWvWWe_ZRi6fru3HjnuF-74" value="Solicita encuestas" style="html=1;verticalAlign=bottom;endArrow=block;curved=0;rounded=0;" edge="1" parent="dWvWWe_ZRi6fru3HjnuF-78" target="dWvWWe_ZRi6fru3HjnuF-69">
          <mxGeometry width="80" relative="1" as="geometry">
            <mxPoint x="170" y="109.5" as="sourcePoint" />
            <mxPoint x="310" y="109.5" as="targetPoint" />
          </mxGeometry>
        </mxCell>
        <mxCell id="dWvWWe_ZRi6fru3HjnuF-77" value="Envia encuestas disponibles" style="html=1;verticalAlign=bottom;endArrow=open;dashed=1;endSize=8;curved=0;rounded=0;" edge="1" parent="dWvWWe_ZRi6fru3HjnuF-78">
          <mxGeometry x="0.0057" relative="1" as="geometry">
            <mxPoint x="345" y="260" as="sourcePoint" />
            <mxPoint x="170" y="260" as="targetPoint" />
            <mxPoint as="offset" />
            <Array as="points">
              <mxPoint x="316" y="260" />
              <mxPoint x="296" y="260" />
              <mxPoint x="276" y="260" />
            </Array>
          </mxGeometry>
        </mxCell>
        <mxCell id="dWvWWe_ZRi6fru3HjnuF-79" value="COMPLETAR ENCUESTA" style="shape=umlFrame;whiteSpace=wrap;html=1;pointerEvents=0;width=100;height=30;" vertex="1" parent="1">
          <mxGeometry x="2160" y="290" width="490" height="460" as="geometry" />
        </mxCell>
        <mxCell id="dWvWWe_ZRi6fru3HjnuF-80" value="APP" style="shape=umlLifeline;perimeter=lifelinePerimeter;whiteSpace=wrap;html=1;container=1;dropTarget=0;collapsible=0;recursiveResize=0;outlineConnect=0;portConstraint=eastwest;newEdgeStyle={&quot;curved&quot;:0,&quot;rounded&quot;:0};" vertex="1" parent="1">
          <mxGeometry x="2460" y="310" width="100" height="410" as="geometry" />
        </mxCell>
        <mxCell id="dWvWWe_ZRi6fru3HjnuF-81" value="" style="html=1;points=[[0,0,0,0,5],[0,1,0,0,-5],[1,0,0,0,5],[1,1,0,0,-5]];perimeter=orthogonalPerimeter;outlineConnect=0;targetShapes=umlLifeline;portConstraint=eastwest;newEdgeStyle={&quot;curved&quot;:0,&quot;rounded&quot;:0};" vertex="1" parent="dWvWWe_ZRi6fru3HjnuF-80">
          <mxGeometry x="45" y="200" width="10" height="90" as="geometry" />
        </mxCell>
        <mxCell id="dWvWWe_ZRi6fru3HjnuF-82" style="edgeStyle=orthogonalEdgeStyle;rounded=0;orthogonalLoop=1;jettySize=auto;html=1;curved=0;exitX=1;exitY=0;exitDx=0;exitDy=5;exitPerimeter=0;" edge="1" parent="dWvWWe_ZRi6fru3HjnuF-80" source="dWvWWe_ZRi6fru3HjnuF-81" target="dWvWWe_ZRi6fru3HjnuF-81">
          <mxGeometry relative="1" as="geometry" />
        </mxCell>
        <mxCell id="dWvWWe_ZRi6fru3HjnuF-83" value="Valida respuestas" style="edgeLabel;html=1;align=center;verticalAlign=middle;resizable=0;points=[];" connectable="0" vertex="1" parent="dWvWWe_ZRi6fru3HjnuF-82">
          <mxGeometry relative="1" as="geometry">
            <mxPoint x="45" as="offset" />
          </mxGeometry>
        </mxCell>
        <mxCell id="dWvWWe_ZRi6fru3HjnuF-84" value="" style="html=1;points=[[0,0,0,0,5],[0,1,0,0,-5],[1,0,0,0,5],[1,1,0,0,-5]];perimeter=orthogonalPerimeter;outlineConnect=0;targetShapes=umlLifeline;portConstraint=eastwest;newEdgeStyle={&quot;curved&quot;:0,&quot;rounded&quot;:0};" vertex="1" parent="dWvWWe_ZRi6fru3HjnuF-80">
          <mxGeometry x="45" y="310" width="10" height="70" as="geometry" />
        </mxCell>
        <mxCell id="dWvWWe_ZRi6fru3HjnuF-85" value="" style="html=1;points=[[0,0,0,0,5],[0,1,0,0,-5],[1,0,0,0,5],[1,1,0,0,-5]];perimeter=orthogonalPerimeter;outlineConnect=0;targetShapes=umlLifeline;portConstraint=eastwest;newEdgeStyle={&quot;curved&quot;:0,&quot;rounded&quot;:0};" vertex="1" parent="1">
          <mxGeometry x="2505" y="390" width="10" height="80" as="geometry" />
        </mxCell>
        <mxCell id="dWvWWe_ZRi6fru3HjnuF-86" value="USUARIO" style="shape=umlLifeline;perimeter=lifelinePerimeter;whiteSpace=wrap;html=1;container=1;dropTarget=0;collapsible=0;recursiveResize=0;outlineConnect=0;portConstraint=eastwest;newEdgeStyle={&quot;curved&quot;:0,&quot;rounded&quot;:0};" vertex="1" parent="1">
          <mxGeometry x="2275" y="310" width="100" height="410" as="geometry" />
        </mxCell>
        <mxCell id="dWvWWe_ZRi6fru3HjnuF-87" value="" style="html=1;points=[[0,0,0,0,5],[0,1,0,0,-5],[1,0,0,0,5],[1,1,0,0,-5]];perimeter=orthogonalPerimeter;outlineConnect=0;targetShapes=umlLifeline;portConstraint=eastwest;newEdgeStyle={&quot;curved&quot;:0,&quot;rounded&quot;:0};" vertex="1" parent="dWvWWe_ZRi6fru3HjnuF-86">
          <mxGeometry x="45" y="200" width="10" height="90" as="geometry" />
        </mxCell>
        <mxCell id="dWvWWe_ZRi6fru3HjnuF-88" value="" style="html=1;points=[[0,0,0,0,5],[0,1,0,0,-5],[1,0,0,0,5],[1,1,0,0,-5]];perimeter=orthogonalPerimeter;outlineConnect=0;targetShapes=umlLifeline;portConstraint=eastwest;newEdgeStyle={&quot;curved&quot;:0,&quot;rounded&quot;:0};" vertex="1" parent="dWvWWe_ZRi6fru3HjnuF-86">
          <mxGeometry x="45" y="310" width="10" height="70" as="geometry" />
        </mxCell>
        <mxCell id="dWvWWe_ZRi6fru3HjnuF-89" value="" style="html=1;points=[[0,0,0,0,5],[0,1,0,0,-5],[1,0,0,0,5],[1,1,0,0,-5]];perimeter=orthogonalPerimeter;outlineConnect=0;targetShapes=umlLifeline;portConstraint=eastwest;newEdgeStyle={&quot;curved&quot;:0,&quot;rounded&quot;:0};" vertex="1" parent="1">
          <mxGeometry x="2320" y="380" width="10" height="90" as="geometry" />
        </mxCell>
        <mxCell id="dWvWWe_ZRi6fru3HjnuF-90" value="Solicita ver encuesta" style="html=1;verticalAlign=bottom;endArrow=block;curved=0;rounded=0;" edge="1" parent="1" target="dWvWWe_ZRi6fru3HjnuF-85">
          <mxGeometry x="0.0057" width="80" relative="1" as="geometry">
            <mxPoint x="2330" y="399.5" as="sourcePoint" />
            <mxPoint x="2470" y="399.5" as="targetPoint" />
            <mxPoint as="offset" />
          </mxGeometry>
        </mxCell>
        <mxCell id="dWvWWe_ZRi6fru3HjnuF-91" value="Envia respuestas&amp;nbsp;" style="html=1;verticalAlign=bottom;endArrow=block;curved=0;rounded=0;" edge="1" parent="1">
          <mxGeometry x="0.0057" width="80" relative="1" as="geometry">
            <mxPoint x="2331" y="524.5" as="sourcePoint" />
            <mxPoint x="2506" y="525" as="targetPoint" />
            <mxPoint as="offset" />
          </mxGeometry>
        </mxCell>
        <mxCell id="dWvWWe_ZRi6fru3HjnuF-92" value="Envia las preguntas&amp;nbsp;" style="html=1;verticalAlign=bottom;endArrow=block;curved=0;rounded=0;exitX=0.46;exitY=0.339;exitDx=0;exitDy=0;exitPerimeter=0;" edge="1" parent="1" target="dWvWWe_ZRi6fru3HjnuF-89">
          <mxGeometry x="0.0057" width="80" relative="1" as="geometry">
            <mxPoint x="2505" y="450" as="sourcePoint" />
            <mxPoint x="2340" y="450" as="targetPoint" />
            <mxPoint as="offset" />
          </mxGeometry>
        </mxCell>
        <mxCell id="dWvWWe_ZRi6fru3HjnuF-93" value="Confirma participacion" style="html=1;verticalAlign=bottom;endArrow=open;dashed=1;endSize=8;curved=0;rounded=0;exitX=0;exitY=1;exitDx=0;exitDy=-5;exitPerimeter=0;" edge="1" parent="1" target="dWvWWe_ZRi6fru3HjnuF-88">
          <mxGeometry x="0.0123" relative="1" as="geometry">
            <mxPoint x="2502" y="680" as="sourcePoint" />
            <mxPoint x="2360" y="680" as="targetPoint" />
            <mxPoint as="offset" />
          </mxGeometry>
        </mxCell>
        <mxCell id="dWvWWe_ZRi6fru3HjnuF-94" value="VER HISTORIAL" style="shape=umlFrame;whiteSpace=wrap;html=1;pointerEvents=0;width=100;height=30;" vertex="1" parent="1">
          <mxGeometry x="2818" y="285" width="490" height="355" as="geometry" />
        </mxCell>
        <mxCell id="dWvWWe_ZRi6fru3HjnuF-95" value="APP" style="shape=umlLifeline;perimeter=lifelinePerimeter;whiteSpace=wrap;html=1;container=1;dropTarget=0;collapsible=0;recursiveResize=0;outlineConnect=0;portConstraint=eastwest;newEdgeStyle={&quot;curved&quot;:0,&quot;rounded&quot;:0};" vertex="1" parent="1">
          <mxGeometry x="3118" y="305" width="100" height="335" as="geometry" />
        </mxCell>
        <mxCell id="dWvWWe_ZRi6fru3HjnuF-96" value="" style="html=1;points=[[0,0,0,0,5],[0,1,0,0,-5],[1,0,0,0,5],[1,1,0,0,-5]];perimeter=orthogonalPerimeter;outlineConnect=0;targetShapes=umlLifeline;portConstraint=eastwest;newEdgeStyle={&quot;curved&quot;:0,&quot;rounded&quot;:0};" vertex="1" parent="dWvWWe_ZRi6fru3HjnuF-95">
          <mxGeometry x="45" y="200" width="10" height="90" as="geometry" />
        </mxCell>
        <mxCell id="dWvWWe_ZRi6fru3HjnuF-100" value="" style="html=1;points=[[0,0,0,0,5],[0,1,0,0,-5],[1,0,0,0,5],[1,1,0,0,-5]];perimeter=orthogonalPerimeter;outlineConnect=0;targetShapes=umlLifeline;portConstraint=eastwest;newEdgeStyle={&quot;curved&quot;:0,&quot;rounded&quot;:0};" vertex="1" parent="1">
          <mxGeometry x="3163" y="385" width="10" height="80" as="geometry" />
        </mxCell>
        <mxCell id="dWvWWe_ZRi6fru3HjnuF-101" value="USUARIO" style="shape=umlLifeline;perimeter=lifelinePerimeter;whiteSpace=wrap;html=1;container=1;dropTarget=0;collapsible=0;recursiveResize=0;outlineConnect=0;portConstraint=eastwest;newEdgeStyle={&quot;curved&quot;:0,&quot;rounded&quot;:0};" vertex="1" parent="1">
          <mxGeometry x="2933" y="305" width="100" height="335" as="geometry" />
        </mxCell>
        <mxCell id="8xlE-u55zbn3NfQ5Q4sI-101" value="" style="html=1;points=[[0,0,0,0,5],[0,1,0,0,-5],[1,0,0,0,5],[1,1,0,0,-5]];perimeter=orthogonalPerimeter;outlineConnect=0;targetShapes=umlLifeline;portConstraint=eastwest;newEdgeStyle={&quot;curved&quot;:0,&quot;rounded&quot;:0};" vertex="1" parent="dWvWWe_ZRi6fru3HjnuF-101">
          <mxGeometry x="45" y="200" width="10" height="90" as="geometry" />
        </mxCell>
        <mxCell id="dWvWWe_ZRi6fru3HjnuF-104" value="" style="html=1;points=[[0,0,0,0,5],[0,1,0,0,-5],[1,0,0,0,5],[1,1,0,0,-5]];perimeter=orthogonalPerimeter;outlineConnect=0;targetShapes=umlLifeline;portConstraint=eastwest;newEdgeStyle={&quot;curved&quot;:0,&quot;rounded&quot;:0};" vertex="1" parent="1">
          <mxGeometry x="2978" y="375" width="10" height="90" as="geometry" />
        </mxCell>
        <mxCell id="dWvWWe_ZRi6fru3HjnuF-105" value="Solicita ver historial" style="html=1;verticalAlign=bottom;endArrow=block;curved=0;rounded=0;" edge="1" parent="1" target="dWvWWe_ZRi6fru3HjnuF-100">
          <mxGeometry x="0.0057" width="80" relative="1" as="geometry">
            <mxPoint x="2988" y="394.5" as="sourcePoint" />
            <mxPoint x="3128" y="394.5" as="targetPoint" />
            <mxPoint as="offset" />
          </mxGeometry>
        </mxCell>
        <mxCell id="dWvWWe_ZRi6fru3HjnuF-108" value="envia respuestas" style="html=1;verticalAlign=bottom;endArrow=open;dashed=1;endSize=8;curved=0;rounded=0;exitX=0;exitY=1;exitDx=0;exitDy=-5;exitPerimeter=0;" edge="1" parent="1">
          <mxGeometry x="0.0116" relative="1" as="geometry">
            <mxPoint x="3160" y="585" as="sourcePoint" />
            <mxPoint x="2988" y="585" as="targetPoint" />
            <mxPoint as="offset" />
            <Array as="points" />
          </mxGeometry>
        </mxCell>
        <mxCell id="dWvWWe_ZRi6fru3HjnuF-109" value="" style="group" connectable="0" vertex="1" parent="1">
          <mxGeometry x="220" y="900" width="490" height="580" as="geometry" />
        </mxCell>
        <mxCell id="dWvWWe_ZRi6fru3HjnuF-111" value="APP" style="shape=umlLifeline;perimeter=lifelinePerimeter;whiteSpace=wrap;html=1;container=1;dropTarget=0;collapsible=0;recursiveResize=0;outlineConnect=0;portConstraint=eastwest;newEdgeStyle={&quot;curved&quot;:0,&quot;rounded&quot;:0};" vertex="1" parent="dWvWWe_ZRi6fru3HjnuF-109">
          <mxGeometry x="300" y="20" width="100" height="560" as="geometry" />
        </mxCell>
        <mxCell id="dWvWWe_ZRi6fru3HjnuF-112" value="" style="html=1;points=[[0,0,0,0,5],[0,1,0,0,-5],[1,0,0,0,5],[1,1,0,0,-5]];perimeter=orthogonalPerimeter;outlineConnect=0;targetShapes=umlLifeline;portConstraint=eastwest;newEdgeStyle={&quot;curved&quot;:0,&quot;rounded&quot;:0};" vertex="1" parent="dWvWWe_ZRi6fru3HjnuF-111">
          <mxGeometry x="45" y="180" width="10" height="90" as="geometry" />
        </mxCell>
        <mxCell id="dWvWWe_ZRi6fru3HjnuF-113" style="edgeStyle=orthogonalEdgeStyle;rounded=0;orthogonalLoop=1;jettySize=auto;html=1;curved=0;exitX=1;exitY=0;exitDx=0;exitDy=5;exitPerimeter=0;" edge="1" parent="dWvWWe_ZRi6fru3HjnuF-111" source="dWvWWe_ZRi6fru3HjnuF-112" target="dWvWWe_ZRi6fru3HjnuF-112">
          <mxGeometry relative="1" as="geometry">
            <Array as="points" />
          </mxGeometry>
        </mxCell>
        <mxCell id="dWvWWe_ZRi6fru3HjnuF-114" value="Valida si hay&lt;div&gt;&amp;nbsp;encuestas realizadas&amp;nbsp;&lt;/div&gt;" style="edgeLabel;html=1;align=center;verticalAlign=middle;resizable=0;points=[];" connectable="0" vertex="1" parent="dWvWWe_ZRi6fru3HjnuF-113">
          <mxGeometry relative="1" as="geometry">
            <mxPoint x="55" as="offset" />
          </mxGeometry>
        </mxCell>
        <mxCell id="dWvWWe_ZRi6fru3HjnuF-115" value="" style="html=1;points=[[0,0,0,0,5],[0,1,0,0,-5],[1,0,0,0,5],[1,1,0,0,-5]];perimeter=orthogonalPerimeter;outlineConnect=0;targetShapes=umlLifeline;portConstraint=eastwest;newEdgeStyle={&quot;curved&quot;:0,&quot;rounded&quot;:0};" vertex="1" parent="dWvWWe_ZRi6fru3HjnuF-109">
          <mxGeometry x="345" y="100" width="10" height="50" as="geometry" />
        </mxCell>
        <mxCell id="dWvWWe_ZRi6fru3HjnuF-116" value="USUARIO" style="shape=umlLifeline;perimeter=lifelinePerimeter;whiteSpace=wrap;html=1;container=1;dropTarget=0;collapsible=0;recursiveResize=0;outlineConnect=0;portConstraint=eastwest;newEdgeStyle={&quot;curved&quot;:0,&quot;rounded&quot;:0};" vertex="1" parent="dWvWWe_ZRi6fru3HjnuF-109">
          <mxGeometry x="115" y="20" width="100" height="560" as="geometry" />
        </mxCell>
        <mxCell id="dWvWWe_ZRi6fru3HjnuF-118" value="" style="html=1;points=[[0,0,0,0,5],[0,1,0,0,-5],[1,0,0,0,5],[1,1,0,0,-5]];perimeter=orthogonalPerimeter;outlineConnect=0;targetShapes=umlLifeline;portConstraint=eastwest;newEdgeStyle={&quot;curved&quot;:0,&quot;rounded&quot;:0};" vertex="1" parent="dWvWWe_ZRi6fru3HjnuF-109">
          <mxGeometry x="160" y="90" width="10" height="60" as="geometry" />
        </mxCell>
        <mxCell id="dWvWWe_ZRi6fru3HjnuF-119" value="Solicita respuesta de encuestas" style="html=1;verticalAlign=bottom;endArrow=block;curved=0;rounded=0;" edge="1" parent="dWvWWe_ZRi6fru3HjnuF-109" target="dWvWWe_ZRi6fru3HjnuF-115">
          <mxGeometry width="80" relative="1" as="geometry">
            <mxPoint x="170" y="109.5" as="sourcePoint" />
            <mxPoint x="310" y="109.5" as="targetPoint" />
          </mxGeometry>
        </mxCell>
        <mxCell id="dWvWWe_ZRi6fru3HjnuF-120" value="Envia respuestas de x encuestas" style="html=1;verticalAlign=bottom;endArrow=open;dashed=1;endSize=8;curved=0;rounded=0;" edge="1" parent="dWvWWe_ZRi6fru3HjnuF-109">
          <mxGeometry x="0.0057" relative="1" as="geometry">
            <mxPoint x="345" y="490" as="sourcePoint" />
            <mxPoint x="170" y="490" as="targetPoint" />
            <mxPoint as="offset" />
            <Array as="points">
              <mxPoint x="316" y="490" />
              <mxPoint x="296" y="490" />
              <mxPoint x="276" y="490" />
            </Array>
          </mxGeometry>
        </mxCell>
        <mxCell id="dWvWWe_ZRi6fru3HjnuF-121" value="" style="html=1;points=[[0,0,0,0,5],[0,1,0,0,-5],[1,0,0,0,5],[1,1,0,0,-5]];perimeter=orthogonalPerimeter;outlineConnect=0;targetShapes=umlLifeline;portConstraint=eastwest;newEdgeStyle={&quot;curved&quot;:0,&quot;rounded&quot;:0};" vertex="1" parent="dWvWWe_ZRi6fru3HjnuF-109">
          <mxGeometry x="345" y="330" width="10" height="70" as="geometry" />
        </mxCell>
        <mxCell id="dWvWWe_ZRi6fru3HjnuF-117" value="" style="html=1;points=[[0,0,0,0,5],[0,1,0,0,-5],[1,0,0,0,5],[1,1,0,0,-5]];perimeter=orthogonalPerimeter;outlineConnect=0;targetShapes=umlLifeline;portConstraint=eastwest;newEdgeStyle={&quot;curved&quot;:0,&quot;rounded&quot;:0};" vertex="1" parent="dWvWWe_ZRi6fru3HjnuF-109">
          <mxGeometry x="160" y="230" width="10" height="70" as="geometry" />
        </mxCell>
        <mxCell id="dWvWWe_ZRi6fru3HjnuF-122" value="" style="endArrow=classic;html=1;rounded=0;" edge="1" parent="dWvWWe_ZRi6fru3HjnuF-109">
          <mxGeometry width="50" height="50" relative="1" as="geometry">
            <mxPoint x="340" y="274.5" as="sourcePoint" />
            <mxPoint x="170" y="274.5" as="targetPoint" />
            <Array as="points">
              <mxPoint x="290" y="274.5" />
            </Array>
          </mxGeometry>
        </mxCell>
        <mxCell id="dWvWWe_ZRi6fru3HjnuF-123" value="Envia encuestas realizadas" style="text;whiteSpace=wrap;html=1;" vertex="1" parent="dWvWWe_ZRi6fru3HjnuF-109">
          <mxGeometry x="180" y="255" width="180" height="15" as="geometry" />
        </mxCell>
        <mxCell id="dWvWWe_ZRi6fru3HjnuF-124" value="" style="html=1;points=[[0,0,0,0,5],[0,1,0,0,-5],[1,0,0,0,5],[1,1,0,0,-5]];perimeter=orthogonalPerimeter;outlineConnect=0;targetShapes=umlLifeline;portConstraint=eastwest;newEdgeStyle={&quot;curved&quot;:0,&quot;rounded&quot;:0};" vertex="1" parent="dWvWWe_ZRi6fru3HjnuF-109">
          <mxGeometry x="160" y="330" width="10" height="70" as="geometry" />
        </mxCell>
        <mxCell id="dWvWWe_ZRi6fru3HjnuF-129" value="Solicita respuestas&lt;div&gt;&amp;nbsp;de x encuestas&amp;nbsp;&lt;/div&gt;" style="html=1;verticalAlign=bottom;endArrow=block;curved=0;rounded=0;" edge="1" parent="dWvWWe_ZRi6fru3HjnuF-109">
          <mxGeometry width="80" relative="1" as="geometry">
            <mxPoint x="170" y="350" as="sourcePoint" />
            <mxPoint x="345" y="350.5" as="targetPoint" />
            <Array as="points">
              <mxPoint x="250" y="350.5" />
            </Array>
          </mxGeometry>
        </mxCell>
        <mxCell id="dWvWWe_ZRi6fru3HjnuF-130" value="" style="html=1;points=[[0,0,0,0,5],[0,1,0,0,-5],[1,0,0,0,5],[1,1,0,0,-5]];perimeter=orthogonalPerimeter;outlineConnect=0;targetShapes=umlLifeline;portConstraint=eastwest;newEdgeStyle={&quot;curved&quot;:0,&quot;rounded&quot;:0};" vertex="1" parent="dWvWWe_ZRi6fru3HjnuF-109">
          <mxGeometry x="160" y="450" width="10" height="70" as="geometry" />
        </mxCell>
        <mxCell id="dWvWWe_ZRi6fru3HjnuF-131" value="" style="html=1;points=[[0,0,0,0,5],[0,1,0,0,-5],[1,0,0,0,5],[1,1,0,0,-5]];perimeter=orthogonalPerimeter;outlineConnect=0;targetShapes=umlLifeline;portConstraint=eastwest;newEdgeStyle={&quot;curved&quot;:0,&quot;rounded&quot;:0};" vertex="1" parent="dWvWWe_ZRi6fru3HjnuF-109">
          <mxGeometry x="345" y="450" width="10" height="70" as="geometry" />
        </mxCell>
        <mxCell id="dWvWWe_ZRi6fru3HjnuF-110" value="Ver respuestas" style="shape=umlFrame;whiteSpace=wrap;html=1;pointerEvents=0;width=100;height=30;" vertex="1" parent="1">
          <mxGeometry x="220" y="900" width="490" height="600" as="geometry" />
        </mxCell>
        <mxCell id="dxuKZiFSSN-FiIX_r60d-1" value="REGISTRO ADMIN" style="shape=umlFrame;whiteSpace=wrap;html=1;pointerEvents=0;width=100;height=30;" vertex="1" parent="1">
          <mxGeometry x="840" y="905" width="550" height="460" as="geometry" />
        </mxCell>
        <mxCell id="dxuKZiFSSN-FiIX_r60d-2" value="APP" style="shape=umlLifeline;perimeter=lifelinePerimeter;whiteSpace=wrap;html=1;container=1;dropTarget=0;collapsible=0;recursiveResize=0;outlineConnect=0;portConstraint=eastwest;newEdgeStyle={&quot;curved&quot;:0,&quot;rounded&quot;:0};size=30;" vertex="1" parent="1">
          <mxGeometry x="1160" y="925" width="100" height="380" as="geometry" />
        </mxCell>
        <mxCell id="dxuKZiFSSN-FiIX_r60d-3" value="" style="html=1;points=[[0,0,0,0,5],[0,1,0,0,-5],[1,0,0,0,5],[1,1,0,0,-5]];perimeter=orthogonalPerimeter;outlineConnect=0;targetShapes=umlLifeline;portConstraint=eastwest;newEdgeStyle={&quot;curved&quot;:0,&quot;rounded&quot;:0};" vertex="1" parent="dxuKZiFSSN-FiIX_r60d-2">
          <mxGeometry x="45" y="200" width="10" height="90" as="geometry" />
        </mxCell>
        <mxCell id="dxuKZiFSSN-FiIX_r60d-4" style="edgeStyle=orthogonalEdgeStyle;rounded=0;orthogonalLoop=1;jettySize=auto;html=1;curved=0;exitX=1;exitY=0;exitDx=0;exitDy=5;exitPerimeter=0;" edge="1" parent="dxuKZiFSSN-FiIX_r60d-2" source="dxuKZiFSSN-FiIX_r60d-3" target="dxuKZiFSSN-FiIX_r60d-3">
          <mxGeometry relative="1" as="geometry" />
        </mxCell>
        <mxCell id="dxuKZiFSSN-FiIX_r60d-5" value="Valida datos del administrador" style="edgeLabel;html=1;align=center;verticalAlign=middle;resizable=0;points=[];" connectable="0" vertex="1" parent="dxuKZiFSSN-FiIX_r60d-4">
          <mxGeometry relative="1" as="geometry">
            <mxPoint x="45" as="offset" />
          </mxGeometry>
        </mxCell>
        <mxCell id="dxuKZiFSSN-FiIX_r60d-6" value="" style="html=1;points=[[0,0,0,0,5],[0,1,0,0,-5],[1,0,0,0,5],[1,1,0,0,-5]];perimeter=orthogonalPerimeter;outlineConnect=0;targetShapes=umlLifeline;portConstraint=eastwest;newEdgeStyle={&quot;curved&quot;:0,&quot;rounded&quot;:0};" vertex="1" parent="dxuKZiFSSN-FiIX_r60d-2">
          <mxGeometry x="45" y="310" width="10" height="70" as="geometry" />
        </mxCell>
        <mxCell id="dxuKZiFSSN-FiIX_r60d-7" value="" style="html=1;points=[[0,0,0,0,5],[0,1,0,0,-5],[1,0,0,0,5],[1,1,0,0,-5]];perimeter=orthogonalPerimeter;outlineConnect=0;targetShapes=umlLifeline;portConstraint=eastwest;newEdgeStyle={&quot;curved&quot;:0,&quot;rounded&quot;:0};" vertex="1" parent="1">
          <mxGeometry x="1205" y="1005" width="10" height="80" as="geometry" />
        </mxCell>
        <mxCell id="dxuKZiFSSN-FiIX_r60d-8" value="ADMIN" style="shape=umlLifeline;perimeter=lifelinePerimeter;whiteSpace=wrap;html=1;container=1;dropTarget=0;collapsible=0;recursiveResize=0;outlineConnect=0;portConstraint=eastwest;newEdgeStyle={&quot;curved&quot;:0,&quot;rounded&quot;:0};" vertex="1" parent="1">
          <mxGeometry x="975" y="925" width="100" height="410" as="geometry" />
        </mxCell>
        <mxCell id="dxuKZiFSSN-FiIX_r60d-9" value="" style="html=1;points=[[0,0,0,0,5],[0,1,0,0,-5],[1,0,0,0,5],[1,1,0,0,-5]];perimeter=orthogonalPerimeter;outlineConnect=0;targetShapes=umlLifeline;portConstraint=eastwest;newEdgeStyle={&quot;curved&quot;:0,&quot;rounded&quot;:0};" vertex="1" parent="dxuKZiFSSN-FiIX_r60d-8">
          <mxGeometry x="45" y="200" width="10" height="90" as="geometry" />
        </mxCell>
        <mxCell id="dxuKZiFSSN-FiIX_r60d-10" value="" style="html=1;points=[[0,0,0,0,5],[0,1,0,0,-5],[1,0,0,0,5],[1,1,0,0,-5]];perimeter=orthogonalPerimeter;outlineConnect=0;targetShapes=umlLifeline;portConstraint=eastwest;newEdgeStyle={&quot;curved&quot;:0,&quot;rounded&quot;:0};" vertex="1" parent="dxuKZiFSSN-FiIX_r60d-8">
          <mxGeometry x="45" y="310" width="10" height="70" as="geometry" />
        </mxCell>
        <mxCell id="dxuKZiFSSN-FiIX_r60d-11" value="" style="html=1;points=[[0,0,0,0,5],[0,1,0,0,-5],[1,0,0,0,5],[1,1,0,0,-5]];perimeter=orthogonalPerimeter;outlineConnect=0;targetShapes=umlLifeline;portConstraint=eastwest;newEdgeStyle={&quot;curved&quot;:0,&quot;rounded&quot;:0};" vertex="1" parent="1">
          <mxGeometry x="1020" y="995" width="10" height="90" as="geometry" />
        </mxCell>
        <mxCell id="dxuKZiFSSN-FiIX_r60d-12" value="Solicita crear una cuenta" style="html=1;verticalAlign=bottom;endArrow=block;curved=0;rounded=0;" edge="1" parent="1" target="dxuKZiFSSN-FiIX_r60d-7">
          <mxGeometry x="0.0057" width="80" relative="1" as="geometry">
            <mxPoint x="1030" y="1014.5" as="sourcePoint" />
            <mxPoint x="1170" y="1014.5" as="targetPoint" />
            <mxPoint as="offset" />
          </mxGeometry>
        </mxCell>
        <mxCell id="dxuKZiFSSN-FiIX_r60d-13" value="Enviar datos del administrador" style="html=1;verticalAlign=bottom;endArrow=block;curved=0;rounded=0;" edge="1" parent="1">
          <mxGeometry width="80" relative="1" as="geometry">
            <mxPoint x="1031" y="1139.5" as="sourcePoint" />
            <mxPoint x="1206" y="1140" as="targetPoint" />
          </mxGeometry>
        </mxCell>
        <mxCell id="dxuKZiFSSN-FiIX_r60d-14" value="Confirma creación de la cuenta" style="html=1;verticalAlign=bottom;endArrow=open;dashed=1;endSize=8;curved=0;rounded=0;exitX=0;exitY=1;exitDx=0;exitDy=-5;exitPerimeter=0;" edge="1" parent="1">
          <mxGeometry x="0.0057" relative="1" as="geometry">
            <mxPoint x="1202" y="1295" as="sourcePoint" />
            <mxPoint x="1030" y="1295" as="targetPoint" />
            <mxPoint as="offset" />
          </mxGeometry>
        </mxCell>
        <mxCell id="dxuKZiFSSN-FiIX_r60d-15" value="" style="endArrow=classic;html=1;rounded=0;" edge="1" parent="1">
          <mxGeometry width="50" height="50" relative="1" as="geometry">
            <mxPoint x="1200" y="1075" as="sourcePoint" />
            <mxPoint x="1030" y="1075" as="targetPoint" />
            <Array as="points">
              <mxPoint x="1150" y="1075" />
            </Array>
          </mxGeometry>
        </mxCell>
        <mxCell id="dxuKZiFSSN-FiIX_r60d-16" value="Solicita datos" style="text;html=1;align=center;verticalAlign=middle;resizable=0;points=[];autosize=1;strokeColor=none;fillColor=none;" vertex="1" parent="1">
          <mxGeometry x="1065" y="1043" width="90" height="30" as="geometry" />
        </mxCell>
        <mxCell id="dxuKZiFSSN-FiIX_r60d-17" value="INICIO DE SESSION ADMIN" style="shape=umlFrame;whiteSpace=wrap;html=1;pointerEvents=0;width=100;height=30;" vertex="1" parent="1">
          <mxGeometry x="1550" y="900" width="490" height="460" as="geometry" />
        </mxCell>
        <mxCell id="dxuKZiFSSN-FiIX_r60d-18" value="APP" style="shape=umlLifeline;perimeter=lifelinePerimeter;whiteSpace=wrap;html=1;container=1;dropTarget=0;collapsible=0;recursiveResize=0;outlineConnect=0;portConstraint=eastwest;newEdgeStyle={&quot;curved&quot;:0,&quot;rounded&quot;:0};" vertex="1" parent="1">
          <mxGeometry x="1850" y="920" width="100" height="410" as="geometry" />
        </mxCell>
        <mxCell id="dxuKZiFSSN-FiIX_r60d-19" value="" style="html=1;points=[[0,0,0,0,5],[0,1,0,0,-5],[1,0,0,0,5],[1,1,0,0,-5]];perimeter=orthogonalPerimeter;outlineConnect=0;targetShapes=umlLifeline;portConstraint=eastwest;newEdgeStyle={&quot;curved&quot;:0,&quot;rounded&quot;:0};" vertex="1" parent="dxuKZiFSSN-FiIX_r60d-18">
          <mxGeometry x="45" y="200" width="10" height="90" as="geometry" />
        </mxCell>
        <mxCell id="dxuKZiFSSN-FiIX_r60d-20" style="edgeStyle=orthogonalEdgeStyle;rounded=0;orthogonalLoop=1;jettySize=auto;html=1;curved=0;exitX=1;exitY=0;exitDx=0;exitDy=5;exitPerimeter=0;" edge="1" parent="dxuKZiFSSN-FiIX_r60d-18" source="dxuKZiFSSN-FiIX_r60d-19" target="dxuKZiFSSN-FiIX_r60d-19">
          <mxGeometry relative="1" as="geometry" />
        </mxCell>
        <mxCell id="dxuKZiFSSN-FiIX_r60d-21" value="Valida credenciales&amp;nbsp; &amp;nbsp;" style="edgeLabel;html=1;align=center;verticalAlign=middle;resizable=0;points=[];" connectable="0" vertex="1" parent="dxuKZiFSSN-FiIX_r60d-20">
          <mxGeometry relative="1" as="geometry">
            <mxPoint x="45" as="offset" />
          </mxGeometry>
        </mxCell>
        <mxCell id="dxuKZiFSSN-FiIX_r60d-22" value="" style="html=1;points=[[0,0,0,0,5],[0,1,0,0,-5],[1,0,0,0,5],[1,1,0,0,-5]];perimeter=orthogonalPerimeter;outlineConnect=0;targetShapes=umlLifeline;portConstraint=eastwest;newEdgeStyle={&quot;curved&quot;:0,&quot;rounded&quot;:0};" vertex="1" parent="dxuKZiFSSN-FiIX_r60d-18">
          <mxGeometry x="45" y="310" width="10" height="70" as="geometry" />
        </mxCell>
        <mxCell id="dxuKZiFSSN-FiIX_r60d-23" value="" style="html=1;points=[[0,0,0,0,5],[0,1,0,0,-5],[1,0,0,0,5],[1,1,0,0,-5]];perimeter=orthogonalPerimeter;outlineConnect=0;targetShapes=umlLifeline;portConstraint=eastwest;newEdgeStyle={&quot;curved&quot;:0,&quot;rounded&quot;:0};" vertex="1" parent="1">
          <mxGeometry x="1895" y="1000" width="10" height="80" as="geometry" />
        </mxCell>
        <mxCell id="dxuKZiFSSN-FiIX_r60d-24" value="ADMIN" style="shape=umlLifeline;perimeter=lifelinePerimeter;whiteSpace=wrap;html=1;container=1;dropTarget=0;collapsible=0;recursiveResize=0;outlineConnect=0;portConstraint=eastwest;newEdgeStyle={&quot;curved&quot;:0,&quot;rounded&quot;:0};" vertex="1" parent="1">
          <mxGeometry x="1665" y="920" width="100" height="410" as="geometry" />
        </mxCell>
        <mxCell id="dxuKZiFSSN-FiIX_r60d-25" value="" style="html=1;points=[[0,0,0,0,5],[0,1,0,0,-5],[1,0,0,0,5],[1,1,0,0,-5]];perimeter=orthogonalPerimeter;outlineConnect=0;targetShapes=umlLifeline;portConstraint=eastwest;newEdgeStyle={&quot;curved&quot;:0,&quot;rounded&quot;:0};" vertex="1" parent="dxuKZiFSSN-FiIX_r60d-24">
          <mxGeometry x="45" y="200" width="10" height="90" as="geometry" />
        </mxCell>
        <mxCell id="dxuKZiFSSN-FiIX_r60d-26" value="" style="html=1;points=[[0,0,0,0,5],[0,1,0,0,-5],[1,0,0,0,5],[1,1,0,0,-5]];perimeter=orthogonalPerimeter;outlineConnect=0;targetShapes=umlLifeline;portConstraint=eastwest;newEdgeStyle={&quot;curved&quot;:0,&quot;rounded&quot;:0};" vertex="1" parent="dxuKZiFSSN-FiIX_r60d-24">
          <mxGeometry x="45" y="310" width="10" height="70" as="geometry" />
        </mxCell>
        <mxCell id="dxuKZiFSSN-FiIX_r60d-27" value="" style="html=1;points=[[0,0,0,0,5],[0,1,0,0,-5],[1,0,0,0,5],[1,1,0,0,-5]];perimeter=orthogonalPerimeter;outlineConnect=0;targetShapes=umlLifeline;portConstraint=eastwest;newEdgeStyle={&quot;curved&quot;:0,&quot;rounded&quot;:0};" vertex="1" parent="1">
          <mxGeometry x="1710" y="990" width="10" height="90" as="geometry" />
        </mxCell>
        <mxCell id="dxuKZiFSSN-FiIX_r60d-28" value="Solicita iniciar sesion" style="html=1;verticalAlign=bottom;endArrow=block;curved=0;rounded=0;" edge="1" parent="1" target="dxuKZiFSSN-FiIX_r60d-23">
          <mxGeometry width="80" relative="1" as="geometry">
            <mxPoint x="1720" y="1009.5" as="sourcePoint" />
            <mxPoint x="1860" y="1009.5" as="targetPoint" />
          </mxGeometry>
        </mxCell>
        <mxCell id="dxuKZiFSSN-FiIX_r60d-29" value="Enviar credenciales" style="html=1;verticalAlign=bottom;endArrow=block;curved=0;rounded=0;" edge="1" parent="1">
          <mxGeometry width="80" relative="1" as="geometry">
            <mxPoint x="1721" y="1134.5" as="sourcePoint" />
            <mxPoint x="1896" y="1135" as="targetPoint" />
          </mxGeometry>
        </mxCell>
        <mxCell id="dxuKZiFSSN-FiIX_r60d-30" value="Solicitar credenciales" style="html=1;verticalAlign=bottom;endArrow=block;curved=0;rounded=0;exitX=0.46;exitY=0.339;exitDx=0;exitDy=0;exitPerimeter=0;" edge="1" parent="1" target="dxuKZiFSSN-FiIX_r60d-27">
          <mxGeometry width="80" relative="1" as="geometry">
            <mxPoint x="1895" y="1060" as="sourcePoint" />
            <mxPoint x="1730" y="1060" as="targetPoint" />
          </mxGeometry>
        </mxCell>
        <mxCell id="dxuKZiFSSN-FiIX_r60d-31" value="Confirma credenciales" style="html=1;verticalAlign=bottom;endArrow=open;dashed=1;endSize=8;curved=0;rounded=0;exitX=0;exitY=1;exitDx=0;exitDy=-5;exitPerimeter=0;" edge="1" parent="1" target="dxuKZiFSSN-FiIX_r60d-26">
          <mxGeometry x="0.0057" relative="1" as="geometry">
            <mxPoint x="1892" y="1290" as="sourcePoint" />
            <mxPoint x="1750" y="1290" as="targetPoint" />
            <mxPoint as="offset" />
          </mxGeometry>
        </mxCell>
        <mxCell id="dxuKZiFSSN-FiIX_r60d-32" value="CREAR ENCUESTAS" style="shape=umlFrame;whiteSpace=wrap;html=1;pointerEvents=0;width=100;height=30;" vertex="1" parent="1">
          <mxGeometry x="2180" y="900" width="490" height="620" as="geometry" />
        </mxCell>
        <mxCell id="dxuKZiFSSN-FiIX_r60d-33" value="APP" style="shape=umlLifeline;perimeter=lifelinePerimeter;whiteSpace=wrap;html=1;container=1;dropTarget=0;collapsible=0;recursiveResize=0;outlineConnect=0;portConstraint=eastwest;newEdgeStyle={&quot;curved&quot;:0,&quot;rounded&quot;:0};" vertex="1" parent="1">
          <mxGeometry x="2500" y="920" width="100" height="530" as="geometry" />
        </mxCell>
        <mxCell id="dxuKZiFSSN-FiIX_r60d-34" value="" style="html=1;points=[[0,0,0,0,5],[0,1,0,0,-5],[1,0,0,0,5],[1,1,0,0,-5]];perimeter=orthogonalPerimeter;outlineConnect=0;targetShapes=umlLifeline;portConstraint=eastwest;newEdgeStyle={&quot;curved&quot;:0,&quot;rounded&quot;:0};" vertex="1" parent="dxuKZiFSSN-FiIX_r60d-33">
          <mxGeometry x="45" y="200" width="10" height="90" as="geometry" />
        </mxCell>
        <mxCell id="dxuKZiFSSN-FiIX_r60d-37" value="" style="html=1;points=[[0,0,0,0,5],[0,1,0,0,-5],[1,0,0,0,5],[1,1,0,0,-5]];perimeter=orthogonalPerimeter;outlineConnect=0;targetShapes=umlLifeline;portConstraint=eastwest;newEdgeStyle={&quot;curved&quot;:0,&quot;rounded&quot;:0};" vertex="1" parent="dxuKZiFSSN-FiIX_r60d-33">
          <mxGeometry x="45" y="450" width="10" height="70" as="geometry" />
        </mxCell>
        <mxCell id="8xlE-u55zbn3NfQ5Q4sI-5" value="" style="html=1;points=[[0,0,0,0,5],[0,1,0,0,-5],[1,0,0,0,5],[1,1,0,0,-5]];perimeter=orthogonalPerimeter;outlineConnect=0;targetShapes=umlLifeline;portConstraint=eastwest;newEdgeStyle={&quot;curved&quot;:0,&quot;rounded&quot;:0};" vertex="1" parent="dxuKZiFSSN-FiIX_r60d-33">
          <mxGeometry x="45" y="320" width="10" height="90" as="geometry" />
        </mxCell>
        <mxCell id="8xlE-u55zbn3NfQ5Q4sI-7" style="edgeStyle=orthogonalEdgeStyle;rounded=0;orthogonalLoop=1;jettySize=auto;html=1;curved=0;exitX=1;exitY=0;exitDx=0;exitDy=5;exitPerimeter=0;entryX=1.4;entryY=0.878;entryDx=0;entryDy=0;entryPerimeter=0;" edge="1" parent="dxuKZiFSSN-FiIX_r60d-33" source="8xlE-u55zbn3NfQ5Q4sI-5" target="8xlE-u55zbn3NfQ5Q4sI-5">
          <mxGeometry relative="1" as="geometry">
            <Array as="points">
              <mxPoint x="55" y="350" />
              <mxPoint x="75" y="350" />
              <mxPoint x="75" y="399" />
            </Array>
          </mxGeometry>
        </mxCell>
        <mxCell id="dxuKZiFSSN-FiIX_r60d-38" value="" style="html=1;points=[[0,0,0,0,5],[0,1,0,0,-5],[1,0,0,0,5],[1,1,0,0,-5]];perimeter=orthogonalPerimeter;outlineConnect=0;targetShapes=umlLifeline;portConstraint=eastwest;newEdgeStyle={&quot;curved&quot;:0,&quot;rounded&quot;:0};" vertex="1" parent="1">
          <mxGeometry x="2545" y="1000" width="10" height="80" as="geometry" />
        </mxCell>
        <mxCell id="dxuKZiFSSN-FiIX_r60d-39" value="ADMIN" style="shape=umlLifeline;perimeter=lifelinePerimeter;whiteSpace=wrap;html=1;container=1;dropTarget=0;collapsible=0;recursiveResize=0;outlineConnect=0;portConstraint=eastwest;newEdgeStyle={&quot;curved&quot;:0,&quot;rounded&quot;:0};" vertex="1" parent="1">
          <mxGeometry x="2315" y="920" width="100" height="530" as="geometry" />
        </mxCell>
        <mxCell id="dxuKZiFSSN-FiIX_r60d-40" value="" style="html=1;points=[[0,0,0,0,5],[0,1,0,0,-5],[1,0,0,0,5],[1,1,0,0,-5]];perimeter=orthogonalPerimeter;outlineConnect=0;targetShapes=umlLifeline;portConstraint=eastwest;newEdgeStyle={&quot;curved&quot;:0,&quot;rounded&quot;:0};" vertex="1" parent="dxuKZiFSSN-FiIX_r60d-39">
          <mxGeometry x="45" y="200" width="10" height="90" as="geometry" />
        </mxCell>
        <mxCell id="dxuKZiFSSN-FiIX_r60d-41" value="" style="html=1;points=[[0,0,0,0,5],[0,1,0,0,-5],[1,0,0,0,5],[1,1,0,0,-5]];perimeter=orthogonalPerimeter;outlineConnect=0;targetShapes=umlLifeline;portConstraint=eastwest;newEdgeStyle={&quot;curved&quot;:0,&quot;rounded&quot;:0};" vertex="1" parent="dxuKZiFSSN-FiIX_r60d-39">
          <mxGeometry x="45" y="450" width="10" height="70" as="geometry" />
        </mxCell>
        <mxCell id="8xlE-u55zbn3NfQ5Q4sI-4" value="" style="html=1;points=[[0,0,0,0,5],[0,1,0,0,-5],[1,0,0,0,5],[1,1,0,0,-5]];perimeter=orthogonalPerimeter;outlineConnect=0;targetShapes=umlLifeline;portConstraint=eastwest;newEdgeStyle={&quot;curved&quot;:0,&quot;rounded&quot;:0};" vertex="1" parent="dxuKZiFSSN-FiIX_r60d-39">
          <mxGeometry x="45" y="320" width="10" height="90" as="geometry" />
        </mxCell>
        <mxCell id="dxuKZiFSSN-FiIX_r60d-42" value="" style="html=1;points=[[0,0,0,0,5],[0,1,0,0,-5],[1,0,0,0,5],[1,1,0,0,-5]];perimeter=orthogonalPerimeter;outlineConnect=0;targetShapes=umlLifeline;portConstraint=eastwest;newEdgeStyle={&quot;curved&quot;:0,&quot;rounded&quot;:0};" vertex="1" parent="1">
          <mxGeometry x="2360" y="990" width="10" height="90" as="geometry" />
        </mxCell>
        <mxCell id="dxuKZiFSSN-FiIX_r60d-43" value="Solicita crear encuestas&amp;nbsp;" style="html=1;verticalAlign=bottom;endArrow=block;curved=0;rounded=0;" edge="1" parent="1" target="dxuKZiFSSN-FiIX_r60d-38">
          <mxGeometry x="0.0057" width="80" relative="1" as="geometry">
            <mxPoint x="2370" y="1009.5" as="sourcePoint" />
            <mxPoint x="2510" y="1009.5" as="targetPoint" />
            <mxPoint as="offset" />
          </mxGeometry>
        </mxCell>
        <mxCell id="dxuKZiFSSN-FiIX_r60d-45" value="solicita secciones" style="html=1;verticalAlign=bottom;endArrow=block;curved=0;rounded=0;exitX=0.46;exitY=0.339;exitDx=0;exitDy=0;exitPerimeter=0;" edge="1" parent="1" target="dxuKZiFSSN-FiIX_r60d-42">
          <mxGeometry x="0.0057" width="80" relative="1" as="geometry">
            <mxPoint x="2545" y="1060" as="sourcePoint" />
            <mxPoint x="2380" y="1060" as="targetPoint" />
            <mxPoint as="offset" />
          </mxGeometry>
        </mxCell>
        <mxCell id="dxuKZiFSSN-FiIX_r60d-46" value="encuesta creada" style="html=1;verticalAlign=bottom;endArrow=open;dashed=1;endSize=8;curved=0;rounded=0;exitX=0;exitY=0.429;exitDx=0;exitDy=0;exitPerimeter=0;" edge="1" parent="1" source="dxuKZiFSSN-FiIX_r60d-37" target="dxuKZiFSSN-FiIX_r60d-41">
          <mxGeometry x="0.0171" relative="1" as="geometry">
            <mxPoint x="2530" y="1400" as="sourcePoint" />
            <mxPoint x="2400" y="1290" as="targetPoint" />
            <mxPoint as="offset" />
            <Array as="points">
              <mxPoint x="2470" y="1400" />
            </Array>
          </mxGeometry>
        </mxCell>
        <mxCell id="8xlE-u55zbn3NfQ5Q4sI-2" value="envia secciones" style="html=1;verticalAlign=bottom;endArrow=block;curved=0;rounded=0;" edge="1" parent="1">
          <mxGeometry x="0.0057" width="80" relative="1" as="geometry">
            <mxPoint x="2370" y="1134.5" as="sourcePoint" />
            <mxPoint x="2545" y="1135" as="targetPoint" />
            <mxPoint as="offset" />
          </mxGeometry>
        </mxCell>
        <mxCell id="8xlE-u55zbn3NfQ5Q4sI-3" value="solicita preguntas y opciones&amp;nbsp;&lt;div&gt;de seleccion&amp;nbsp;&lt;/div&gt;" style="html=1;verticalAlign=bottom;endArrow=block;curved=0;rounded=0;exitX=0.46;exitY=0.339;exitDx=0;exitDy=0;exitPerimeter=0;" edge="1" parent="1">
          <mxGeometry x="0.0057" width="80" relative="1" as="geometry">
            <mxPoint x="2545" y="1189.5" as="sourcePoint" />
            <mxPoint x="2370" y="1189.5" as="targetPoint" />
            <mxPoint as="offset" />
          </mxGeometry>
        </mxCell>
        <mxCell id="8xlE-u55zbn3NfQ5Q4sI-6" value="envia preguntas y opciones&lt;div&gt;de seleccion&lt;/div&gt;" style="html=1;verticalAlign=bottom;endArrow=block;curved=0;rounded=0;" edge="1" parent="1">
          <mxGeometry x="0.0057" width="80" relative="1" as="geometry">
            <mxPoint x="2370" y="1250" as="sourcePoint" />
            <mxPoint x="2545" y="1250.5" as="targetPoint" />
            <mxPoint as="offset" />
          </mxGeometry>
        </mxCell>
        <mxCell id="8xlE-u55zbn3NfQ5Q4sI-8" value="valida datos&lt;div&gt;&amp;nbsp;de encuesta&lt;/div&gt;" style="text;html=1;align=center;verticalAlign=middle;resizable=0;points=[];autosize=1;strokeColor=none;fillColor=none;" vertex="1" parent="1">
          <mxGeometry x="2570" y="1270" width="90" height="40" as="geometry" />
        </mxCell>
        <mxCell id="8xlE-u55zbn3NfQ5Q4sI-9" value="&lt;span style=&quot;background-color: initial;&quot;&gt;EDITAR ENCUESTAS&lt;/span&gt;" style="shape=umlFrame;whiteSpace=wrap;html=1;pointerEvents=0;width=100;height=30;" vertex="1" parent="1">
          <mxGeometry x="2830" y="900" width="490" height="560" as="geometry" />
        </mxCell>
        <mxCell id="8xlE-u55zbn3NfQ5Q4sI-10" value="APP" style="shape=umlLifeline;perimeter=lifelinePerimeter;whiteSpace=wrap;html=1;container=1;dropTarget=0;collapsible=0;recursiveResize=0;outlineConnect=0;portConstraint=eastwest;newEdgeStyle={&quot;curved&quot;:0,&quot;rounded&quot;:0};" vertex="1" parent="1">
          <mxGeometry x="3130" y="920" width="100" height="530" as="geometry" />
        </mxCell>
        <mxCell id="8xlE-u55zbn3NfQ5Q4sI-11" value="" style="html=1;points=[[0,0,0,0,5],[0,1,0,0,-5],[1,0,0,0,5],[1,1,0,0,-5]];perimeter=orthogonalPerimeter;outlineConnect=0;targetShapes=umlLifeline;portConstraint=eastwest;newEdgeStyle={&quot;curved&quot;:0,&quot;rounded&quot;:0};" vertex="1" parent="8xlE-u55zbn3NfQ5Q4sI-10">
          <mxGeometry x="45" y="200" width="10" height="90" as="geometry" />
        </mxCell>
        <mxCell id="8xlE-u55zbn3NfQ5Q4sI-12" value="" style="html=1;points=[[0,0,0,0,5],[0,1,0,0,-5],[1,0,0,0,5],[1,1,0,0,-5]];perimeter=orthogonalPerimeter;outlineConnect=0;targetShapes=umlLifeline;portConstraint=eastwest;newEdgeStyle={&quot;curved&quot;:0,&quot;rounded&quot;:0};" vertex="1" parent="8xlE-u55zbn3NfQ5Q4sI-10">
          <mxGeometry x="45" y="450" width="10" height="70" as="geometry" />
        </mxCell>
        <mxCell id="8xlE-u55zbn3NfQ5Q4sI-13" value="" style="html=1;points=[[0,0,0,0,5],[0,1,0,0,-5],[1,0,0,0,5],[1,1,0,0,-5]];perimeter=orthogonalPerimeter;outlineConnect=0;targetShapes=umlLifeline;portConstraint=eastwest;newEdgeStyle={&quot;curved&quot;:0,&quot;rounded&quot;:0};" vertex="1" parent="8xlE-u55zbn3NfQ5Q4sI-10">
          <mxGeometry x="45" y="320" width="10" height="90" as="geometry" />
        </mxCell>
        <mxCell id="8xlE-u55zbn3NfQ5Q4sI-14" style="edgeStyle=orthogonalEdgeStyle;rounded=0;orthogonalLoop=1;jettySize=auto;html=1;curved=0;exitX=1;exitY=0;exitDx=0;exitDy=5;exitPerimeter=0;entryX=1.4;entryY=0.878;entryDx=0;entryDy=0;entryPerimeter=0;" edge="1" parent="8xlE-u55zbn3NfQ5Q4sI-10" source="8xlE-u55zbn3NfQ5Q4sI-13" target="8xlE-u55zbn3NfQ5Q4sI-13">
          <mxGeometry relative="1" as="geometry">
            <Array as="points">
              <mxPoint x="55" y="350" />
              <mxPoint x="75" y="350" />
              <mxPoint x="75" y="399" />
            </Array>
          </mxGeometry>
        </mxCell>
        <mxCell id="8xlE-u55zbn3NfQ5Q4sI-15" value="" style="html=1;points=[[0,0,0,0,5],[0,1,0,0,-5],[1,0,0,0,5],[1,1,0,0,-5]];perimeter=orthogonalPerimeter;outlineConnect=0;targetShapes=umlLifeline;portConstraint=eastwest;newEdgeStyle={&quot;curved&quot;:0,&quot;rounded&quot;:0};" vertex="1" parent="1">
          <mxGeometry x="3175" y="1000" width="10" height="80" as="geometry" />
        </mxCell>
        <mxCell id="8xlE-u55zbn3NfQ5Q4sI-16" value="ADMIN" style="shape=umlLifeline;perimeter=lifelinePerimeter;whiteSpace=wrap;html=1;container=1;dropTarget=0;collapsible=0;recursiveResize=0;outlineConnect=0;portConstraint=eastwest;newEdgeStyle={&quot;curved&quot;:0,&quot;rounded&quot;:0};" vertex="1" parent="1">
          <mxGeometry x="2945" y="920" width="100" height="530" as="geometry" />
        </mxCell>
        <mxCell id="8xlE-u55zbn3NfQ5Q4sI-17" value="" style="html=1;points=[[0,0,0,0,5],[0,1,0,0,-5],[1,0,0,0,5],[1,1,0,0,-5]];perimeter=orthogonalPerimeter;outlineConnect=0;targetShapes=umlLifeline;portConstraint=eastwest;newEdgeStyle={&quot;curved&quot;:0,&quot;rounded&quot;:0};" vertex="1" parent="8xlE-u55zbn3NfQ5Q4sI-16">
          <mxGeometry x="45" y="200" width="10" height="90" as="geometry" />
        </mxCell>
        <mxCell id="8xlE-u55zbn3NfQ5Q4sI-18" value="" style="html=1;points=[[0,0,0,0,5],[0,1,0,0,-5],[1,0,0,0,5],[1,1,0,0,-5]];perimeter=orthogonalPerimeter;outlineConnect=0;targetShapes=umlLifeline;portConstraint=eastwest;newEdgeStyle={&quot;curved&quot;:0,&quot;rounded&quot;:0};" vertex="1" parent="8xlE-u55zbn3NfQ5Q4sI-16">
          <mxGeometry x="45" y="450" width="10" height="70" as="geometry" />
        </mxCell>
        <mxCell id="8xlE-u55zbn3NfQ5Q4sI-19" value="" style="html=1;points=[[0,0,0,0,5],[0,1,0,0,-5],[1,0,0,0,5],[1,1,0,0,-5]];perimeter=orthogonalPerimeter;outlineConnect=0;targetShapes=umlLifeline;portConstraint=eastwest;newEdgeStyle={&quot;curved&quot;:0,&quot;rounded&quot;:0};" vertex="1" parent="8xlE-u55zbn3NfQ5Q4sI-16">
          <mxGeometry x="45" y="320" width="10" height="90" as="geometry" />
        </mxCell>
        <mxCell id="8xlE-u55zbn3NfQ5Q4sI-20" value="" style="html=1;points=[[0,0,0,0,5],[0,1,0,0,-5],[1,0,0,0,5],[1,1,0,0,-5]];perimeter=orthogonalPerimeter;outlineConnect=0;targetShapes=umlLifeline;portConstraint=eastwest;newEdgeStyle={&quot;curved&quot;:0,&quot;rounded&quot;:0};" vertex="1" parent="1">
          <mxGeometry x="2990" y="990" width="10" height="90" as="geometry" />
        </mxCell>
        <mxCell id="8xlE-u55zbn3NfQ5Q4sI-21" value="Solicita lista de encuestas" style="html=1;verticalAlign=bottom;endArrow=block;curved=0;rounded=0;" edge="1" parent="1" target="8xlE-u55zbn3NfQ5Q4sI-15">
          <mxGeometry x="0.0057" width="80" relative="1" as="geometry">
            <mxPoint x="3000" y="1009.5" as="sourcePoint" />
            <mxPoint x="3140" y="1009.5" as="targetPoint" />
            <mxPoint as="offset" />
          </mxGeometry>
        </mxCell>
        <mxCell id="8xlE-u55zbn3NfQ5Q4sI-22" value="envia lista de encuestas" style="html=1;verticalAlign=bottom;endArrow=block;curved=0;rounded=0;exitX=0.46;exitY=0.339;exitDx=0;exitDy=0;exitPerimeter=0;" edge="1" parent="1" target="8xlE-u55zbn3NfQ5Q4sI-20">
          <mxGeometry x="0.0057" width="80" relative="1" as="geometry">
            <mxPoint x="3175" y="1060" as="sourcePoint" />
            <mxPoint x="3010" y="1060" as="targetPoint" />
            <mxPoint as="offset" />
          </mxGeometry>
        </mxCell>
        <mxCell id="8xlE-u55zbn3NfQ5Q4sI-23" value="encuesta editada" style="html=1;verticalAlign=bottom;endArrow=open;dashed=1;endSize=8;curved=0;rounded=0;exitX=0;exitY=0.429;exitDx=0;exitDy=0;exitPerimeter=0;" edge="1" parent="1" source="8xlE-u55zbn3NfQ5Q4sI-12" target="8xlE-u55zbn3NfQ5Q4sI-18">
          <mxGeometry x="0.0171" relative="1" as="geometry">
            <mxPoint x="3160" y="1400" as="sourcePoint" />
            <mxPoint x="3030" y="1290" as="targetPoint" />
            <mxPoint as="offset" />
            <Array as="points">
              <mxPoint x="3100" y="1400" />
            </Array>
          </mxGeometry>
        </mxCell>
        <mxCell id="8xlE-u55zbn3NfQ5Q4sI-24" value="selecciona encuesta" style="html=1;verticalAlign=bottom;endArrow=block;curved=0;rounded=0;" edge="1" parent="1">
          <mxGeometry x="0.0284" y="5" width="80" relative="1" as="geometry">
            <mxPoint x="3000" y="1134.5" as="sourcePoint" />
            <mxPoint x="3175" y="1135" as="targetPoint" />
            <mxPoint as="offset" />
          </mxGeometry>
        </mxCell>
        <mxCell id="8xlE-u55zbn3NfQ5Q4sI-25" value="envia secciones y preguntas" style="html=1;verticalAlign=bottom;endArrow=block;curved=0;rounded=0;exitX=0.46;exitY=0.339;exitDx=0;exitDy=0;exitPerimeter=0;" edge="1" parent="1">
          <mxGeometry x="0.0057" width="80" relative="1" as="geometry">
            <mxPoint x="3175" y="1189.5" as="sourcePoint" />
            <mxPoint x="3000" y="1189.5" as="targetPoint" />
            <mxPoint as="offset" />
          </mxGeometry>
        </mxCell>
        <mxCell id="8xlE-u55zbn3NfQ5Q4sI-26" value="envia cambios" style="html=1;verticalAlign=bottom;endArrow=block;curved=0;rounded=0;" edge="1" parent="1">
          <mxGeometry x="0.0057" width="80" relative="1" as="geometry">
            <mxPoint x="3000" y="1250" as="sourcePoint" />
            <mxPoint x="3175" y="1250.5" as="targetPoint" />
            <mxPoint as="offset" />
          </mxGeometry>
        </mxCell>
        <mxCell id="8xlE-u55zbn3NfQ5Q4sI-27" value="valida cambios&lt;div&gt;&amp;nbsp;en la&amp;nbsp; encuesta&lt;/div&gt;" style="text;html=1;align=center;verticalAlign=middle;resizable=0;points=[];autosize=1;strokeColor=none;fillColor=none;" vertex="1" parent="1">
          <mxGeometry x="3190" y="1270" width="110" height="40" as="geometry" />
        </mxCell>
        <mxCell id="8xlE-u55zbn3NfQ5Q4sI-28" value="ELIMINAR ENCUESTA" style="shape=umlFrame;whiteSpace=wrap;html=1;pointerEvents=0;width=100;height=30;" vertex="1" parent="1">
          <mxGeometry x="210" y="1590" width="490" height="560" as="geometry" />
        </mxCell>
        <mxCell id="8xlE-u55zbn3NfQ5Q4sI-29" value="APP" style="shape=umlLifeline;perimeter=lifelinePerimeter;whiteSpace=wrap;html=1;container=1;dropTarget=0;collapsible=0;recursiveResize=0;outlineConnect=0;portConstraint=eastwest;newEdgeStyle={&quot;curved&quot;:0,&quot;rounded&quot;:0};" vertex="1" parent="1">
          <mxGeometry x="510" y="1610" width="100" height="530" as="geometry" />
        </mxCell>
        <mxCell id="8xlE-u55zbn3NfQ5Q4sI-30" value="" style="html=1;points=[[0,0,0,0,5],[0,1,0,0,-5],[1,0,0,0,5],[1,1,0,0,-5]];perimeter=orthogonalPerimeter;outlineConnect=0;targetShapes=umlLifeline;portConstraint=eastwest;newEdgeStyle={&quot;curved&quot;:0,&quot;rounded&quot;:0};" vertex="1" parent="8xlE-u55zbn3NfQ5Q4sI-29">
          <mxGeometry x="45" y="200" width="10" height="90" as="geometry" />
        </mxCell>
        <mxCell id="8xlE-u55zbn3NfQ5Q4sI-31" value="" style="html=1;points=[[0,0,0,0,5],[0,1,0,0,-5],[1,0,0,0,5],[1,1,0,0,-5]];perimeter=orthogonalPerimeter;outlineConnect=0;targetShapes=umlLifeline;portConstraint=eastwest;newEdgeStyle={&quot;curved&quot;:0,&quot;rounded&quot;:0};" vertex="1" parent="8xlE-u55zbn3NfQ5Q4sI-29">
          <mxGeometry x="45" y="450" width="10" height="70" as="geometry" />
        </mxCell>
        <mxCell id="8xlE-u55zbn3NfQ5Q4sI-32" value="" style="html=1;points=[[0,0,0,0,5],[0,1,0,0,-5],[1,0,0,0,5],[1,1,0,0,-5]];perimeter=orthogonalPerimeter;outlineConnect=0;targetShapes=umlLifeline;portConstraint=eastwest;newEdgeStyle={&quot;curved&quot;:0,&quot;rounded&quot;:0};" vertex="1" parent="8xlE-u55zbn3NfQ5Q4sI-29">
          <mxGeometry x="45" y="320" width="10" height="90" as="geometry" />
        </mxCell>
        <mxCell id="8xlE-u55zbn3NfQ5Q4sI-33" style="edgeStyle=orthogonalEdgeStyle;rounded=0;orthogonalLoop=1;jettySize=auto;html=1;curved=0;exitX=1;exitY=0;exitDx=0;exitDy=5;exitPerimeter=0;entryX=1.4;entryY=0.878;entryDx=0;entryDy=0;entryPerimeter=0;" edge="1" parent="8xlE-u55zbn3NfQ5Q4sI-29" source="8xlE-u55zbn3NfQ5Q4sI-32" target="8xlE-u55zbn3NfQ5Q4sI-32">
          <mxGeometry relative="1" as="geometry">
            <Array as="points">
              <mxPoint x="55" y="350" />
              <mxPoint x="75" y="350" />
              <mxPoint x="75" y="399" />
            </Array>
          </mxGeometry>
        </mxCell>
        <mxCell id="8xlE-u55zbn3NfQ5Q4sI-34" value="" style="html=1;points=[[0,0,0,0,5],[0,1,0,0,-5],[1,0,0,0,5],[1,1,0,0,-5]];perimeter=orthogonalPerimeter;outlineConnect=0;targetShapes=umlLifeline;portConstraint=eastwest;newEdgeStyle={&quot;curved&quot;:0,&quot;rounded&quot;:0};" vertex="1" parent="1">
          <mxGeometry x="555" y="1690" width="10" height="80" as="geometry" />
        </mxCell>
        <mxCell id="8xlE-u55zbn3NfQ5Q4sI-35" value="ADMIN" style="shape=umlLifeline;perimeter=lifelinePerimeter;whiteSpace=wrap;html=1;container=1;dropTarget=0;collapsible=0;recursiveResize=0;outlineConnect=0;portConstraint=eastwest;newEdgeStyle={&quot;curved&quot;:0,&quot;rounded&quot;:0};" vertex="1" parent="1">
          <mxGeometry x="325" y="1610" width="100" height="530" as="geometry" />
        </mxCell>
        <mxCell id="8xlE-u55zbn3NfQ5Q4sI-36" value="" style="html=1;points=[[0,0,0,0,5],[0,1,0,0,-5],[1,0,0,0,5],[1,1,0,0,-5]];perimeter=orthogonalPerimeter;outlineConnect=0;targetShapes=umlLifeline;portConstraint=eastwest;newEdgeStyle={&quot;curved&quot;:0,&quot;rounded&quot;:0};" vertex="1" parent="8xlE-u55zbn3NfQ5Q4sI-35">
          <mxGeometry x="45" y="200" width="10" height="90" as="geometry" />
        </mxCell>
        <mxCell id="8xlE-u55zbn3NfQ5Q4sI-37" value="" style="html=1;points=[[0,0,0,0,5],[0,1,0,0,-5],[1,0,0,0,5],[1,1,0,0,-5]];perimeter=orthogonalPerimeter;outlineConnect=0;targetShapes=umlLifeline;portConstraint=eastwest;newEdgeStyle={&quot;curved&quot;:0,&quot;rounded&quot;:0};" vertex="1" parent="8xlE-u55zbn3NfQ5Q4sI-35">
          <mxGeometry x="45" y="450" width="10" height="70" as="geometry" />
        </mxCell>
        <mxCell id="8xlE-u55zbn3NfQ5Q4sI-38" value="" style="html=1;points=[[0,0,0,0,5],[0,1,0,0,-5],[1,0,0,0,5],[1,1,0,0,-5]];perimeter=orthogonalPerimeter;outlineConnect=0;targetShapes=umlLifeline;portConstraint=eastwest;newEdgeStyle={&quot;curved&quot;:0,&quot;rounded&quot;:0};" vertex="1" parent="8xlE-u55zbn3NfQ5Q4sI-35">
          <mxGeometry x="45" y="320" width="10" height="90" as="geometry" />
        </mxCell>
        <mxCell id="8xlE-u55zbn3NfQ5Q4sI-39" value="" style="html=1;points=[[0,0,0,0,5],[0,1,0,0,-5],[1,0,0,0,5],[1,1,0,0,-5]];perimeter=orthogonalPerimeter;outlineConnect=0;targetShapes=umlLifeline;portConstraint=eastwest;newEdgeStyle={&quot;curved&quot;:0,&quot;rounded&quot;:0};" vertex="1" parent="1">
          <mxGeometry x="370" y="1680" width="10" height="90" as="geometry" />
        </mxCell>
        <mxCell id="8xlE-u55zbn3NfQ5Q4sI-40" value="Solicita lista de encuestas" style="html=1;verticalAlign=bottom;endArrow=block;curved=0;rounded=0;" edge="1" parent="1" target="8xlE-u55zbn3NfQ5Q4sI-34">
          <mxGeometry x="0.0057" width="80" relative="1" as="geometry">
            <mxPoint x="380" y="1699.5" as="sourcePoint" />
            <mxPoint x="520" y="1699.5" as="targetPoint" />
            <mxPoint as="offset" />
          </mxGeometry>
        </mxCell>
        <mxCell id="8xlE-u55zbn3NfQ5Q4sI-41" value="envia lista de encuestas" style="html=1;verticalAlign=bottom;endArrow=block;curved=0;rounded=0;exitX=0.46;exitY=0.339;exitDx=0;exitDy=0;exitPerimeter=0;" edge="1" parent="1" target="8xlE-u55zbn3NfQ5Q4sI-39">
          <mxGeometry x="0.0057" width="80" relative="1" as="geometry">
            <mxPoint x="555" y="1750" as="sourcePoint" />
            <mxPoint x="390" y="1750" as="targetPoint" />
            <mxPoint as="offset" />
          </mxGeometry>
        </mxCell>
        <mxCell id="8xlE-u55zbn3NfQ5Q4sI-42" value="encuesta eliminada" style="html=1;verticalAlign=bottom;endArrow=open;dashed=1;endSize=8;curved=0;rounded=0;exitX=0;exitY=0.429;exitDx=0;exitDy=0;exitPerimeter=0;" edge="1" parent="1" source="8xlE-u55zbn3NfQ5Q4sI-31" target="8xlE-u55zbn3NfQ5Q4sI-37">
          <mxGeometry x="0.0171" relative="1" as="geometry">
            <mxPoint x="540" y="2090" as="sourcePoint" />
            <mxPoint x="410" y="1980" as="targetPoint" />
            <mxPoint as="offset" />
            <Array as="points">
              <mxPoint x="480" y="2090" />
            </Array>
          </mxGeometry>
        </mxCell>
        <mxCell id="8xlE-u55zbn3NfQ5Q4sI-43" value="selecciona encuesta" style="html=1;verticalAlign=bottom;endArrow=block;curved=0;rounded=0;" edge="1" parent="1">
          <mxGeometry x="0.0057" width="80" relative="1" as="geometry">
            <mxPoint x="380" y="1824.5" as="sourcePoint" />
            <mxPoint x="555" y="1825" as="targetPoint" />
            <mxPoint as="offset" />
          </mxGeometry>
        </mxCell>
        <mxCell id="8xlE-u55zbn3NfQ5Q4sI-44" value="" style="html=1;verticalAlign=bottom;endArrow=block;curved=0;rounded=0;exitX=0.46;exitY=0.339;exitDx=0;exitDy=0;exitPerimeter=0;" edge="1" parent="1">
          <mxGeometry x="0.0057" width="80" relative="1" as="geometry">
            <mxPoint x="555" y="1879.5" as="sourcePoint" />
            <mxPoint x="380" y="1879.5" as="targetPoint" />
            <mxPoint as="offset" />
          </mxGeometry>
        </mxCell>
        <mxCell id="8xlE-u55zbn3NfQ5Q4sI-45" value="envia confirmacion" style="html=1;verticalAlign=bottom;endArrow=block;curved=0;rounded=0;" edge="1" parent="1">
          <mxGeometry x="0.0057" width="80" relative="1" as="geometry">
            <mxPoint x="380" y="1940" as="sourcePoint" />
            <mxPoint x="555" y="1940.5" as="targetPoint" />
            <mxPoint as="offset" />
          </mxGeometry>
        </mxCell>
        <mxCell id="8xlE-u55zbn3NfQ5Q4sI-46" value="valida la eleminacion&lt;div&gt;de la encuesta&lt;/div&gt;" style="text;html=1;align=center;verticalAlign=middle;resizable=0;points=[];autosize=1;strokeColor=none;fillColor=none;" vertex="1" parent="1">
          <mxGeometry x="580" y="1960" width="130" height="40" as="geometry" />
        </mxCell>
        <mxCell id="8xlE-u55zbn3NfQ5Q4sI-66" value="ESTADISTICAS DE ENCUESTAS" style="shape=umlFrame;whiteSpace=wrap;html=1;pointerEvents=0;width=100;height=30;" vertex="1" parent="1">
          <mxGeometry x="1530" y="1615" width="490" height="220" as="geometry" />
        </mxCell>
        <mxCell id="8xlE-u55zbn3NfQ5Q4sI-67" value="APP" style="shape=umlLifeline;perimeter=lifelinePerimeter;whiteSpace=wrap;html=1;container=1;dropTarget=0;collapsible=0;recursiveResize=0;outlineConnect=0;portConstraint=eastwest;newEdgeStyle={&quot;curved&quot;:0,&quot;rounded&quot;:0};" vertex="1" parent="1">
          <mxGeometry x="1830" y="1635" width="100" height="190" as="geometry" />
        </mxCell>
        <mxCell id="8xlE-u55zbn3NfQ5Q4sI-72" value="" style="html=1;points=[[0,0,0,0,5],[0,1,0,0,-5],[1,0,0,0,5],[1,1,0,0,-5]];perimeter=orthogonalPerimeter;outlineConnect=0;targetShapes=umlLifeline;portConstraint=eastwest;newEdgeStyle={&quot;curved&quot;:0,&quot;rounded&quot;:0};" vertex="1" parent="1">
          <mxGeometry x="1875" y="1715" width="10" height="80" as="geometry" />
        </mxCell>
        <mxCell id="8xlE-u55zbn3NfQ5Q4sI-73" value="ADMIN" style="shape=umlLifeline;perimeter=lifelinePerimeter;whiteSpace=wrap;html=1;container=1;dropTarget=0;collapsible=0;recursiveResize=0;outlineConnect=0;portConstraint=eastwest;newEdgeStyle={&quot;curved&quot;:0,&quot;rounded&quot;:0};" vertex="1" parent="1">
          <mxGeometry x="1645" y="1635" width="100" height="190" as="geometry" />
        </mxCell>
        <mxCell id="8xlE-u55zbn3NfQ5Q4sI-77" value="" style="html=1;points=[[0,0,0,0,5],[0,1,0,0,-5],[1,0,0,0,5],[1,1,0,0,-5]];perimeter=orthogonalPerimeter;outlineConnect=0;targetShapes=umlLifeline;portConstraint=eastwest;newEdgeStyle={&quot;curved&quot;:0,&quot;rounded&quot;:0};" vertex="1" parent="1">
          <mxGeometry x="1690" y="1705" width="10" height="90" as="geometry" />
        </mxCell>
        <mxCell id="8xlE-u55zbn3NfQ5Q4sI-78" value="solicita ver estadisticas&amp;nbsp;&amp;nbsp;" style="html=1;verticalAlign=bottom;endArrow=block;curved=0;rounded=0;" edge="1" parent="1" target="8xlE-u55zbn3NfQ5Q4sI-72">
          <mxGeometry x="0.0057" width="80" relative="1" as="geometry">
            <mxPoint x="1700" y="1724.5" as="sourcePoint" />
            <mxPoint x="1840" y="1724.5" as="targetPoint" />
            <mxPoint as="offset" />
          </mxGeometry>
        </mxCell>
        <mxCell id="8xlE-u55zbn3NfQ5Q4sI-79" value="envía estadísticas" style="html=1;verticalAlign=bottom;endArrow=block;curved=0;rounded=0;exitX=0.46;exitY=0.339;exitDx=0;exitDy=0;exitPerimeter=0;" edge="1" parent="1" target="8xlE-u55zbn3NfQ5Q4sI-77">
          <mxGeometry x="0.0057" width="80" relative="1" as="geometry">
            <mxPoint x="1875" y="1775" as="sourcePoint" />
            <mxPoint x="1710" y="1775" as="targetPoint" />
            <mxPoint as="offset" />
          </mxGeometry>
        </mxCell>
        <mxCell id="8xlE-u55zbn3NfQ5Q4sI-85" value="solicita confirmacion&amp;nbsp;" style="text;html=1;align=center;verticalAlign=middle;resizable=0;points=[];autosize=1;strokeColor=none;fillColor=none;" vertex="1" parent="1">
          <mxGeometry x="395" y="1855" width="130" height="30" as="geometry" />
        </mxCell>
        <mxCell id="8xlE-u55zbn3NfQ5Q4sI-100" value="envia lista de encuestas" style="html=1;verticalAlign=bottom;endArrow=block;curved=0;rounded=0;exitX=0.46;exitY=0.339;exitDx=0;exitDy=0;exitPerimeter=0;" edge="1" parent="1">
          <mxGeometry x="0.0057" width="80" relative="1" as="geometry">
            <mxPoint x="3162.5" y="439.5" as="sourcePoint" />
            <mxPoint x="2987.5" y="439.5" as="targetPoint" />
            <mxPoint as="offset" />
          </mxGeometry>
        </mxCell>
        <mxCell id="8xlE-u55zbn3NfQ5Q4sI-103" value="selecciona encuesta" style="html=1;verticalAlign=bottom;endArrow=block;curved=0;rounded=0;" edge="1" parent="1">
          <mxGeometry x="0.0284" y="5" width="80" relative="1" as="geometry">
            <mxPoint x="2988" y="517" as="sourcePoint" />
            <mxPoint x="3163" y="517.5" as="targetPoint" />
            <mxPoint as="offset" />
          </mxGeometry>
        </mxCell>
        <mxCell id="8xlE-u55zbn3NfQ5Q4sI-116" value="VER HISTORIAL" style="shape=umlFrame;whiteSpace=wrap;html=1;pointerEvents=0;width=100;height=30;" vertex="1" parent="1">
          <mxGeometry x="775" y="1580" width="490" height="355" as="geometry" />
        </mxCell>
        <mxCell id="8xlE-u55zbn3NfQ5Q4sI-117" value="APP" style="shape=umlLifeline;perimeter=lifelinePerimeter;whiteSpace=wrap;html=1;container=1;dropTarget=0;collapsible=0;recursiveResize=0;outlineConnect=0;portConstraint=eastwest;newEdgeStyle={&quot;curved&quot;:0,&quot;rounded&quot;:0};" vertex="1" parent="1">
          <mxGeometry x="1075" y="1600" width="100" height="335" as="geometry" />
        </mxCell>
        <mxCell id="8xlE-u55zbn3NfQ5Q4sI-118" value="" style="html=1;points=[[0,0,0,0,5],[0,1,0,0,-5],[1,0,0,0,5],[1,1,0,0,-5]];perimeter=orthogonalPerimeter;outlineConnect=0;targetShapes=umlLifeline;portConstraint=eastwest;newEdgeStyle={&quot;curved&quot;:0,&quot;rounded&quot;:0};" vertex="1" parent="8xlE-u55zbn3NfQ5Q4sI-117">
          <mxGeometry x="45" y="200" width="10" height="90" as="geometry" />
        </mxCell>
        <mxCell id="8xlE-u55zbn3NfQ5Q4sI-119" value="" style="html=1;points=[[0,0,0,0,5],[0,1,0,0,-5],[1,0,0,0,5],[1,1,0,0,-5]];perimeter=orthogonalPerimeter;outlineConnect=0;targetShapes=umlLifeline;portConstraint=eastwest;newEdgeStyle={&quot;curved&quot;:0,&quot;rounded&quot;:0};" vertex="1" parent="1">
          <mxGeometry x="1120" y="1680" width="10" height="80" as="geometry" />
        </mxCell>
        <mxCell id="8xlE-u55zbn3NfQ5Q4sI-120" value="ADMIN" style="shape=umlLifeline;perimeter=lifelinePerimeter;whiteSpace=wrap;html=1;container=1;dropTarget=0;collapsible=0;recursiveResize=0;outlineConnect=0;portConstraint=eastwest;newEdgeStyle={&quot;curved&quot;:0,&quot;rounded&quot;:0};" vertex="1" parent="1">
          <mxGeometry x="890" y="1600" width="100" height="335" as="geometry" />
        </mxCell>
        <mxCell id="8xlE-u55zbn3NfQ5Q4sI-121" value="" style="html=1;points=[[0,0,0,0,5],[0,1,0,0,-5],[1,0,0,0,5],[1,1,0,0,-5]];perimeter=orthogonalPerimeter;outlineConnect=0;targetShapes=umlLifeline;portConstraint=eastwest;newEdgeStyle={&quot;curved&quot;:0,&quot;rounded&quot;:0};" vertex="1" parent="8xlE-u55zbn3NfQ5Q4sI-120">
          <mxGeometry x="45" y="200" width="10" height="90" as="geometry" />
        </mxCell>
        <mxCell id="8xlE-u55zbn3NfQ5Q4sI-122" value="" style="html=1;points=[[0,0,0,0,5],[0,1,0,0,-5],[1,0,0,0,5],[1,1,0,0,-5]];perimeter=orthogonalPerimeter;outlineConnect=0;targetShapes=umlLifeline;portConstraint=eastwest;newEdgeStyle={&quot;curved&quot;:0,&quot;rounded&quot;:0};" vertex="1" parent="1">
          <mxGeometry x="935" y="1670" width="10" height="90" as="geometry" />
        </mxCell>
        <mxCell id="8xlE-u55zbn3NfQ5Q4sI-123" value="Solicita lista de encuestas&amp;nbsp;" style="html=1;verticalAlign=bottom;endArrow=block;curved=0;rounded=0;" edge="1" parent="1" target="8xlE-u55zbn3NfQ5Q4sI-119">
          <mxGeometry x="0.0057" width="80" relative="1" as="geometry">
            <mxPoint x="945" y="1689.5" as="sourcePoint" />
            <mxPoint x="1085" y="1689.5" as="targetPoint" />
            <mxPoint as="offset" />
          </mxGeometry>
        </mxCell>
        <mxCell id="8xlE-u55zbn3NfQ5Q4sI-124" value="envia secciones, preguntas&lt;div&gt;&amp;nbsp;y respuestas&lt;/div&gt;" style="html=1;verticalAlign=bottom;endArrow=open;dashed=1;endSize=8;curved=0;rounded=0;exitX=0;exitY=1;exitDx=0;exitDy=-5;exitPerimeter=0;" edge="1" parent="1">
          <mxGeometry x="0.0123" relative="1" as="geometry">
            <mxPoint x="1117" y="1880" as="sourcePoint" />
            <mxPoint x="945" y="1880" as="targetPoint" />
            <mxPoint as="offset" />
            <Array as="points">
              <mxPoint x="1037" y="1880" />
            </Array>
          </mxGeometry>
        </mxCell>
        <mxCell id="8xlE-u55zbn3NfQ5Q4sI-125" value="envia lista de encuestas" style="html=1;verticalAlign=bottom;endArrow=block;curved=0;rounded=0;exitX=0.46;exitY=0.339;exitDx=0;exitDy=0;exitPerimeter=0;" edge="1" parent="1">
          <mxGeometry x="0.0057" width="80" relative="1" as="geometry">
            <mxPoint x="1119.5" y="1734.5" as="sourcePoint" />
            <mxPoint x="944.5" y="1734.5" as="targetPoint" />
            <mxPoint as="offset" />
          </mxGeometry>
        </mxCell>
        <mxCell id="8xlE-u55zbn3NfQ5Q4sI-126" value="selecciona encuesta" style="html=1;verticalAlign=bottom;endArrow=block;curved=0;rounded=0;" edge="1" parent="1">
          <mxGeometry x="0.0284" y="5" width="80" relative="1" as="geometry">
            <mxPoint x="945" y="1812" as="sourcePoint" />
            <mxPoint x="1120" y="1812.5" as="targetPoint" />
            <mxPoint as="offset" />
          </mxGeometry>
        </mxCell>
        <mxCell id="8xlE-u55zbn3NfQ5Q4sI-127" value="GENERAR REPORTE&amp;nbsp;" style="shape=umlFrame;whiteSpace=wrap;html=1;pointerEvents=0;width=100;height=30;" vertex="1" parent="1">
          <mxGeometry x="2200" y="1657.5" width="490" height="220" as="geometry" />
        </mxCell>
        <mxCell id="8xlE-u55zbn3NfQ5Q4sI-128" value="APP" style="shape=umlLifeline;perimeter=lifelinePerimeter;whiteSpace=wrap;html=1;container=1;dropTarget=0;collapsible=0;recursiveResize=0;outlineConnect=0;portConstraint=eastwest;newEdgeStyle={&quot;curved&quot;:0,&quot;rounded&quot;:0};" vertex="1" parent="1">
          <mxGeometry x="2500" y="1677.5" width="100" height="190" as="geometry" />
        </mxCell>
        <mxCell id="8xlE-u55zbn3NfQ5Q4sI-130" value="" style="html=1;points=[[0,0,0,0,5],[0,1,0,0,-5],[1,0,0,0,5],[1,1,0,0,-5]];perimeter=orthogonalPerimeter;outlineConnect=0;targetShapes=umlLifeline;portConstraint=eastwest;newEdgeStyle={&quot;curved&quot;:0,&quot;rounded&quot;:0};" vertex="1" parent="1">
          <mxGeometry x="2545" y="1757.5" width="10" height="80" as="geometry" />
        </mxCell>
        <mxCell id="8xlE-u55zbn3NfQ5Q4sI-131" value="ADMIN" style="shape=umlLifeline;perimeter=lifelinePerimeter;whiteSpace=wrap;html=1;container=1;dropTarget=0;collapsible=0;recursiveResize=0;outlineConnect=0;portConstraint=eastwest;newEdgeStyle={&quot;curved&quot;:0,&quot;rounded&quot;:0};" vertex="1" parent="1">
          <mxGeometry x="2315" y="1677.5" width="100" height="190" as="geometry" />
        </mxCell>
        <mxCell id="8xlE-u55zbn3NfQ5Q4sI-133" value="" style="html=1;points=[[0,0,0,0,5],[0,1,0,0,-5],[1,0,0,0,5],[1,1,0,0,-5]];perimeter=orthogonalPerimeter;outlineConnect=0;targetShapes=umlLifeline;portConstraint=eastwest;newEdgeStyle={&quot;curved&quot;:0,&quot;rounded&quot;:0};" vertex="1" parent="1">
          <mxGeometry x="2360" y="1747.5" width="10" height="90" as="geometry" />
        </mxCell>
        <mxCell id="8xlE-u55zbn3NfQ5Q4sI-134" value="solicita reporte" style="html=1;verticalAlign=bottom;endArrow=block;curved=0;rounded=0;" edge="1" parent="1" target="8xlE-u55zbn3NfQ5Q4sI-130">
          <mxGeometry x="0.0057" width="80" relative="1" as="geometry">
            <mxPoint x="2370" y="1767" as="sourcePoint" />
            <mxPoint x="2510" y="1767" as="targetPoint" />
            <mxPoint as="offset" />
          </mxGeometry>
        </mxCell>
        <mxCell id="8xlE-u55zbn3NfQ5Q4sI-138" value="CERRAR SESSION" style="shape=umlFrame;whiteSpace=wrap;html=1;pointerEvents=0;width=100;height=30;" vertex="1" parent="1">
          <mxGeometry x="1370" y="2210" width="490" height="220" as="geometry" />
        </mxCell>
        <mxCell id="8xlE-u55zbn3NfQ5Q4sI-139" value="APP" style="shape=umlLifeline;perimeter=lifelinePerimeter;whiteSpace=wrap;html=1;container=1;dropTarget=0;collapsible=0;recursiveResize=0;outlineConnect=0;portConstraint=eastwest;newEdgeStyle={&quot;curved&quot;:0,&quot;rounded&quot;:0};" vertex="1" parent="1">
          <mxGeometry x="1670" y="2230" width="100" height="190" as="geometry" />
        </mxCell>
        <mxCell id="8xlE-u55zbn3NfQ5Q4sI-140" value="" style="html=1;points=[[0,0,0,0,5],[0,1,0,0,-5],[1,0,0,0,5],[1,1,0,0,-5]];perimeter=orthogonalPerimeter;outlineConnect=0;targetShapes=umlLifeline;portConstraint=eastwest;newEdgeStyle={&quot;curved&quot;:0,&quot;rounded&quot;:0};" vertex="1" parent="1">
          <mxGeometry x="1715" y="2310" width="10" height="80" as="geometry" />
        </mxCell>
        <mxCell id="8xlE-u55zbn3NfQ5Q4sI-141" value="ADMIN" style="shape=umlLifeline;perimeter=lifelinePerimeter;whiteSpace=wrap;html=1;container=1;dropTarget=0;collapsible=0;recursiveResize=0;outlineConnect=0;portConstraint=eastwest;newEdgeStyle={&quot;curved&quot;:0,&quot;rounded&quot;:0};" vertex="1" parent="1">
          <mxGeometry x="1485" y="2230" width="100" height="190" as="geometry" />
        </mxCell>
        <mxCell id="8xlE-u55zbn3NfQ5Q4sI-142" value="" style="html=1;points=[[0,0,0,0,5],[0,1,0,0,-5],[1,0,0,0,5],[1,1,0,0,-5]];perimeter=orthogonalPerimeter;outlineConnect=0;targetShapes=umlLifeline;portConstraint=eastwest;newEdgeStyle={&quot;curved&quot;:0,&quot;rounded&quot;:0};" vertex="1" parent="1">
          <mxGeometry x="1530" y="2300" width="10" height="90" as="geometry" />
        </mxCell>
        <mxCell id="8xlE-u55zbn3NfQ5Q4sI-143" value="solicita cerrar session" style="html=1;verticalAlign=bottom;endArrow=block;curved=0;rounded=0;" edge="1" parent="1" target="8xlE-u55zbn3NfQ5Q4sI-140">
          <mxGeometry x="0.0057" width="80" relative="1" as="geometry">
            <mxPoint x="1540" y="2319.5" as="sourcePoint" />
            <mxPoint x="1680" y="2319.5" as="targetPoint" />
            <mxPoint as="offset" />
          </mxGeometry>
        </mxCell>
        <mxCell id="8xlE-u55zbn3NfQ5Q4sI-145" value="envia reporte" style="html=1;verticalAlign=bottom;endArrow=open;dashed=1;endSize=8;curved=0;rounded=0;exitX=0;exitY=0.429;exitDx=0;exitDy=0;exitPerimeter=0;" edge="1" parent="1">
          <mxGeometry x="0.0171" relative="1" as="geometry">
            <mxPoint x="2545" y="1820.5" as="sourcePoint" />
            <mxPoint x="2370" y="1820.5" as="targetPoint" />
            <mxPoint as="offset" />
            <Array as="points">
              <mxPoint x="2470" y="1820.5" />
            </Array>
          </mxGeometry>
        </mxCell>
        <mxCell id="8xlE-u55zbn3NfQ5Q4sI-146" value="cerrar session" style="html=1;verticalAlign=bottom;endArrow=open;dashed=1;endSize=8;curved=0;rounded=0;exitX=0;exitY=0.429;exitDx=0;exitDy=0;exitPerimeter=0;" edge="1" parent="1">
          <mxGeometry x="0.0171" relative="1" as="geometry">
            <mxPoint x="1715" y="2372" as="sourcePoint" />
            <mxPoint x="1540" y="2372" as="targetPoint" />
            <mxPoint as="offset" />
            <Array as="points" />
          </mxGeometry>
        </mxCell>
        <mxCell id="8xlE-u55zbn3NfQ5Q4sI-147" value="CERRAR SESSION" style="shape=umlFrame;whiteSpace=wrap;html=1;pointerEvents=0;width=100;height=30;" vertex="1" parent="1">
          <mxGeometry x="1950" y="2210" width="490" height="220" as="geometry" />
        </mxCell>
        <mxCell id="8xlE-u55zbn3NfQ5Q4sI-148" value="APP" style="shape=umlLifeline;perimeter=lifelinePerimeter;whiteSpace=wrap;html=1;container=1;dropTarget=0;collapsible=0;recursiveResize=0;outlineConnect=0;portConstraint=eastwest;newEdgeStyle={&quot;curved&quot;:0,&quot;rounded&quot;:0};" vertex="1" parent="1">
          <mxGeometry x="2250" y="2230" width="100" height="190" as="geometry" />
        </mxCell>
        <mxCell id="8xlE-u55zbn3NfQ5Q4sI-149" value="" style="html=1;points=[[0,0,0,0,5],[0,1,0,0,-5],[1,0,0,0,5],[1,1,0,0,-5]];perimeter=orthogonalPerimeter;outlineConnect=0;targetShapes=umlLifeline;portConstraint=eastwest;newEdgeStyle={&quot;curved&quot;:0,&quot;rounded&quot;:0};" vertex="1" parent="1">
          <mxGeometry x="2295" y="2310" width="10" height="80" as="geometry" />
        </mxCell>
        <mxCell id="8xlE-u55zbn3NfQ5Q4sI-150" value="USUARIO" style="shape=umlLifeline;perimeter=lifelinePerimeter;whiteSpace=wrap;html=1;container=1;dropTarget=0;collapsible=0;recursiveResize=0;outlineConnect=0;portConstraint=eastwest;newEdgeStyle={&quot;curved&quot;:0,&quot;rounded&quot;:0};" vertex="1" parent="1">
          <mxGeometry x="2065" y="2230" width="100" height="190" as="geometry" />
        </mxCell>
        <mxCell id="8xlE-u55zbn3NfQ5Q4sI-151" value="" style="html=1;points=[[0,0,0,0,5],[0,1,0,0,-5],[1,0,0,0,5],[1,1,0,0,-5]];perimeter=orthogonalPerimeter;outlineConnect=0;targetShapes=umlLifeline;portConstraint=eastwest;newEdgeStyle={&quot;curved&quot;:0,&quot;rounded&quot;:0};" vertex="1" parent="1">
          <mxGeometry x="2110" y="2300" width="10" height="90" as="geometry" />
        </mxCell>
        <mxCell id="8xlE-u55zbn3NfQ5Q4sI-152" value="solicita cerrar session" style="html=1;verticalAlign=bottom;endArrow=block;curved=0;rounded=0;" edge="1" parent="1" target="8xlE-u55zbn3NfQ5Q4sI-149">
          <mxGeometry x="0.0057" width="80" relative="1" as="geometry">
            <mxPoint x="2120" y="2319.5" as="sourcePoint" />
            <mxPoint x="2260" y="2319.5" as="targetPoint" />
            <mxPoint as="offset" />
          </mxGeometry>
        </mxCell>
        <mxCell id="8xlE-u55zbn3NfQ5Q4sI-153" value="cerrar session" style="html=1;verticalAlign=bottom;endArrow=open;dashed=1;endSize=8;curved=0;rounded=0;exitX=0;exitY=0.429;exitDx=0;exitDy=0;exitPerimeter=0;" edge="1" parent="1">
          <mxGeometry x="0.0171" relative="1" as="geometry">
            <mxPoint x="2295" y="2372" as="sourcePoint" />
            <mxPoint x="2120" y="2372" as="targetPoint" />
            <mxPoint as="offset" />
            <Array as="points" />
          </mxGeometry>
        </mxCell>
        <mxCell id="auvZec7RqwK-jFAM0ice-1" value="ACTUALIZAR INFORMACION" style="shape=umlFrame;whiteSpace=wrap;html=1;pointerEvents=0;width=100;height=30;" vertex="1" parent="1">
          <mxGeometry x="200" y="2210" width="490" height="355" as="geometry" />
        </mxCell>
        <mxCell id="auvZec7RqwK-jFAM0ice-2" value="APP" style="shape=umlLifeline;perimeter=lifelinePerimeter;whiteSpace=wrap;html=1;container=1;dropTarget=0;collapsible=0;recursiveResize=0;outlineConnect=0;portConstraint=eastwest;newEdgeStyle={&quot;curved&quot;:0,&quot;rounded&quot;:0};" vertex="1" parent="1">
          <mxGeometry x="500" y="2230" width="100" height="335" as="geometry" />
        </mxCell>
        <mxCell id="auvZec7RqwK-jFAM0ice-3" value="" style="html=1;points=[[0,0,0,0,5],[0,1,0,0,-5],[1,0,0,0,5],[1,1,0,0,-5]];perimeter=orthogonalPerimeter;outlineConnect=0;targetShapes=umlLifeline;portConstraint=eastwest;newEdgeStyle={&quot;curved&quot;:0,&quot;rounded&quot;:0};" vertex="1" parent="auvZec7RqwK-jFAM0ice-2">
          <mxGeometry x="45" y="200" width="10" height="90" as="geometry" />
        </mxCell>
        <mxCell id="auvZec7RqwK-jFAM0ice-4" value="" style="html=1;points=[[0,0,0,0,5],[0,1,0,0,-5],[1,0,0,0,5],[1,1,0,0,-5]];perimeter=orthogonalPerimeter;outlineConnect=0;targetShapes=umlLifeline;portConstraint=eastwest;newEdgeStyle={&quot;curved&quot;:0,&quot;rounded&quot;:0};" vertex="1" parent="1">
          <mxGeometry x="545" y="2310" width="10" height="80" as="geometry" />
        </mxCell>
        <mxCell id="auvZec7RqwK-jFAM0ice-5" value="ADMIN" style="shape=umlLifeline;perimeter=lifelinePerimeter;whiteSpace=wrap;html=1;container=1;dropTarget=0;collapsible=0;recursiveResize=0;outlineConnect=0;portConstraint=eastwest;newEdgeStyle={&quot;curved&quot;:0,&quot;rounded&quot;:0};" vertex="1" parent="1">
          <mxGeometry x="315" y="2230" width="100" height="335" as="geometry" />
        </mxCell>
        <mxCell id="auvZec7RqwK-jFAM0ice-6" value="" style="html=1;points=[[0,0,0,0,5],[0,1,0,0,-5],[1,0,0,0,5],[1,1,0,0,-5]];perimeter=orthogonalPerimeter;outlineConnect=0;targetShapes=umlLifeline;portConstraint=eastwest;newEdgeStyle={&quot;curved&quot;:0,&quot;rounded&quot;:0};" vertex="1" parent="auvZec7RqwK-jFAM0ice-5">
          <mxGeometry x="45" y="200" width="10" height="90" as="geometry" />
        </mxCell>
        <mxCell id="auvZec7RqwK-jFAM0ice-7" value="" style="html=1;points=[[0,0,0,0,5],[0,1,0,0,-5],[1,0,0,0,5],[1,1,0,0,-5]];perimeter=orthogonalPerimeter;outlineConnect=0;targetShapes=umlLifeline;portConstraint=eastwest;newEdgeStyle={&quot;curved&quot;:0,&quot;rounded&quot;:0};" vertex="1" parent="1">
          <mxGeometry x="360" y="2300" width="10" height="90" as="geometry" />
        </mxCell>
        <mxCell id="auvZec7RqwK-jFAM0ice-8" value="solicita actualizar datos" style="html=1;verticalAlign=bottom;endArrow=block;curved=0;rounded=0;" edge="1" parent="1" target="auvZec7RqwK-jFAM0ice-4">
          <mxGeometry x="0.0057" width="80" relative="1" as="geometry">
            <mxPoint x="370" y="2319.5" as="sourcePoint" />
            <mxPoint x="510" y="2319.5" as="targetPoint" />
            <mxPoint as="offset" />
          </mxGeometry>
        </mxCell>
        <mxCell id="auvZec7RqwK-jFAM0ice-9" value="datos actualizados" style="html=1;verticalAlign=bottom;endArrow=open;dashed=1;endSize=8;curved=0;rounded=0;exitX=0;exitY=1;exitDx=0;exitDy=-5;exitPerimeter=0;" edge="1" parent="1">
          <mxGeometry x="0.0123" relative="1" as="geometry">
            <mxPoint x="542" y="2510" as="sourcePoint" />
            <mxPoint x="370" y="2510" as="targetPoint" />
            <mxPoint as="offset" />
            <Array as="points">
              <mxPoint x="462" y="2510" />
            </Array>
          </mxGeometry>
        </mxCell>
        <mxCell id="auvZec7RqwK-jFAM0ice-10" value="solicita nuevos datos" style="html=1;verticalAlign=bottom;endArrow=block;curved=0;rounded=0;exitX=0.46;exitY=0.339;exitDx=0;exitDy=0;exitPerimeter=0;" edge="1" parent="1">
          <mxGeometry x="0.0057" width="80" relative="1" as="geometry">
            <mxPoint x="544.5" y="2364.5" as="sourcePoint" />
            <mxPoint x="369.5" y="2364.5" as="targetPoint" />
            <mxPoint as="offset" />
          </mxGeometry>
        </mxCell>
        <mxCell id="auvZec7RqwK-jFAM0ice-11" value="envia nuevos datos" style="html=1;verticalAlign=bottom;endArrow=block;curved=0;rounded=0;" edge="1" parent="1">
          <mxGeometry x="0.0284" y="5" width="80" relative="1" as="geometry">
            <mxPoint x="370" y="2442" as="sourcePoint" />
            <mxPoint x="545" y="2442.5" as="targetPoint" />
            <mxPoint as="offset" />
          </mxGeometry>
        </mxCell>
        <mxCell id="auvZec7RqwK-jFAM0ice-12" value="ACTUALIZAR INFORMACION" style="shape=umlFrame;whiteSpace=wrap;html=1;pointerEvents=0;width=100;height=30;" vertex="1" parent="1">
          <mxGeometry x="790" y="2210" width="490" height="355" as="geometry" />
        </mxCell>
        <mxCell id="auvZec7RqwK-jFAM0ice-13" value="APP" style="shape=umlLifeline;perimeter=lifelinePerimeter;whiteSpace=wrap;html=1;container=1;dropTarget=0;collapsible=0;recursiveResize=0;outlineConnect=0;portConstraint=eastwest;newEdgeStyle={&quot;curved&quot;:0,&quot;rounded&quot;:0};" vertex="1" parent="1">
          <mxGeometry x="1090" y="2230" width="100" height="335" as="geometry" />
        </mxCell>
        <mxCell id="auvZec7RqwK-jFAM0ice-14" value="" style="html=1;points=[[0,0,0,0,5],[0,1,0,0,-5],[1,0,0,0,5],[1,1,0,0,-5]];perimeter=orthogonalPerimeter;outlineConnect=0;targetShapes=umlLifeline;portConstraint=eastwest;newEdgeStyle={&quot;curved&quot;:0,&quot;rounded&quot;:0};" vertex="1" parent="auvZec7RqwK-jFAM0ice-13">
          <mxGeometry x="45" y="200" width="10" height="90" as="geometry" />
        </mxCell>
        <mxCell id="auvZec7RqwK-jFAM0ice-15" value="" style="html=1;points=[[0,0,0,0,5],[0,1,0,0,-5],[1,0,0,0,5],[1,1,0,0,-5]];perimeter=orthogonalPerimeter;outlineConnect=0;targetShapes=umlLifeline;portConstraint=eastwest;newEdgeStyle={&quot;curved&quot;:0,&quot;rounded&quot;:0};" vertex="1" parent="1">
          <mxGeometry x="1135" y="2310" width="10" height="80" as="geometry" />
        </mxCell>
        <mxCell id="auvZec7RqwK-jFAM0ice-16" value="USUARIO" style="shape=umlLifeline;perimeter=lifelinePerimeter;whiteSpace=wrap;html=1;container=1;dropTarget=0;collapsible=0;recursiveResize=0;outlineConnect=0;portConstraint=eastwest;newEdgeStyle={&quot;curved&quot;:0,&quot;rounded&quot;:0};" vertex="1" parent="1">
          <mxGeometry x="905" y="2230" width="100" height="335" as="geometry" />
        </mxCell>
        <mxCell id="auvZec7RqwK-jFAM0ice-17" value="" style="html=1;points=[[0,0,0,0,5],[0,1,0,0,-5],[1,0,0,0,5],[1,1,0,0,-5]];perimeter=orthogonalPerimeter;outlineConnect=0;targetShapes=umlLifeline;portConstraint=eastwest;newEdgeStyle={&quot;curved&quot;:0,&quot;rounded&quot;:0};" vertex="1" parent="auvZec7RqwK-jFAM0ice-16">
          <mxGeometry x="45" y="200" width="10" height="90" as="geometry" />
        </mxCell>
        <mxCell id="auvZec7RqwK-jFAM0ice-18" value="" style="html=1;points=[[0,0,0,0,5],[0,1,0,0,-5],[1,0,0,0,5],[1,1,0,0,-5]];perimeter=orthogonalPerimeter;outlineConnect=0;targetShapes=umlLifeline;portConstraint=eastwest;newEdgeStyle={&quot;curved&quot;:0,&quot;rounded&quot;:0};" vertex="1" parent="1">
          <mxGeometry x="950" y="2300" width="10" height="90" as="geometry" />
        </mxCell>
        <mxCell id="auvZec7RqwK-jFAM0ice-19" value="solicita actualizar datos" style="html=1;verticalAlign=bottom;endArrow=block;curved=0;rounded=0;" edge="1" parent="1" target="auvZec7RqwK-jFAM0ice-15">
          <mxGeometry x="0.0057" width="80" relative="1" as="geometry">
            <mxPoint x="960" y="2319.5" as="sourcePoint" />
            <mxPoint x="1100" y="2319.5" as="targetPoint" />
            <mxPoint as="offset" />
          </mxGeometry>
        </mxCell>
        <mxCell id="auvZec7RqwK-jFAM0ice-20" value="datos actualizados" style="html=1;verticalAlign=bottom;endArrow=open;dashed=1;endSize=8;curved=0;rounded=0;exitX=0;exitY=1;exitDx=0;exitDy=-5;exitPerimeter=0;" edge="1" parent="1">
          <mxGeometry x="0.0123" relative="1" as="geometry">
            <mxPoint x="1132" y="2510" as="sourcePoint" />
            <mxPoint x="960" y="2510" as="targetPoint" />
            <mxPoint as="offset" />
            <Array as="points">
              <mxPoint x="1052" y="2510" />
            </Array>
          </mxGeometry>
        </mxCell>
        <mxCell id="auvZec7RqwK-jFAM0ice-21" value="solicita nuevos datos" style="html=1;verticalAlign=bottom;endArrow=block;curved=0;rounded=0;exitX=0.46;exitY=0.339;exitDx=0;exitDy=0;exitPerimeter=0;" edge="1" parent="1">
          <mxGeometry x="0.0057" width="80" relative="1" as="geometry">
            <mxPoint x="1134.5" y="2364.5" as="sourcePoint" />
            <mxPoint x="959.5" y="2364.5" as="targetPoint" />
            <mxPoint as="offset" />
          </mxGeometry>
        </mxCell>
        <mxCell id="auvZec7RqwK-jFAM0ice-22" value="envia nuevos datos" style="html=1;verticalAlign=bottom;endArrow=block;curved=0;rounded=0;" edge="1" parent="1">
          <mxGeometry x="0.0284" y="5" width="80" relative="1" as="geometry">
            <mxPoint x="960" y="2442" as="sourcePoint" />
            <mxPoint x="1135" y="2442.5" as="targetPoint" />
            <mxPoint as="offset" />
          </mxGeometry>
        </mxCell>
      </root>
    </mxGraphModel>
  </diagram>
</mxfile>
